<?xml version="1.0" encoding="UTF-8" standalone="no"?>
<svg
   aria-hidden="true"
   focusable="false"
   data-prefix="fab"
   data-icon="instagram"
   class="svg-inline--fa fa-instagram fa-w-14"
   role="img"
   viewBox="0 0 64 64"
   version="1.1"
   id="svg2660"
   sodipodi:docname="instagram.svg"
   width="64"
   height="64"
   inkscape:version="1.2.1 (9c6d41e410, 2022-07-14)"
   xmlns:inkscape="http://www.inkscape.org/namespaces/inkscape"
   xmlns:sodipodi="http://sodipodi.sourceforge.net/DTD/sodipodi-0.dtd"
   xmlns="http://www.w3.org/2000/svg"
   xmlns:svg="http://www.w3.org/2000/svg"
   xmlns:rdf="http://www.w3.org/1999/02/22-rdf-syntax-ns#"
   xmlns:cc="http://creativecommons.org/ns#"
   xmlns:dc="http://purl.org/dc/elements/1.1/">
  <metadata
     id="metadata2666">
    <rdf:RDF>
      <cc:Work
         rdf:about="">
        <dc:format>image/svg+xml</dc:format>
        <dc:type
           rdf:resource="http://purl.org/dc/dcmitype/StillImage" />
        <dc:title />
      </cc:Work>
    </rdf:RDF>
  </metadata>
  <defs
     id="defs2664" />
  <sodipodi:namedview
     pagecolor="#ffffff"
     bordercolor="#666666"
     borderopacity="1"
     objecttolerance="10"
     gridtolerance="10"
     guidetolerance="10"
     inkscape:pageopacity="0"
     inkscape:pageshadow="2"
     inkscape:window-width="1920"
     inkscape:window-height="1027"
     id="namedview2662"
     showgrid="false"
     inkscape:zoom="3.3203125"
     inkscape:cx="13.101176"
     inkscape:cy="39.454118"
     inkscape:window-x="-8"
     inkscape:window-y="22"
     inkscape:window-maximized="1"
     inkscape:current-layer="svg2660"
     inkscape:document-rotation="0"
     inkscape:pagecheckerboard="true"
     inkscape:showpageshadow="2"
     inkscape:deskcolor="#d1d1d1" />
  <g
     id="g854"
     transform="matrix(0.14194445,0,0,0.14194445,-4.5473956,-1.9305185)"
     style="fill:#ffffff">
    <path
       style="fill:#ffffff;fill-opacity:1;stroke-width:4.34377;stroke-linecap:round;stroke-linejoin:round;paint-order:stroke fill markers"
       d="m 154.81518,456.59499 c -20.23492,-1.51061 -40.7248,-5.26916 -51.61049,-9.46713 C 84.48833,439.91007 66.53525,423.93183 57.44695,406.40349 44.10496,380.67114 41.60781,354.51831 41.60781,240.51939 c 0,-111.3553 2.48699,-139.47435 14.49084,-163.839995 8.08164,-16.404261 21.94011,-30.491341 38.36418,-38.997017 14.79563,-7.662346 28.23966,-10.739355 59.14764,-13.53745 22.0593,-1.997024 188.06187,-2.004294 210.82353,-0.0092 43.93741,3.851117 63.13027,10.630545 81.56925,28.812423 17.56556,17.320641 25.07276,36.18566 29.33896,73.726569 2.03617,17.91751 2.96613,175.36059 1.2168,206.0047 -3.09363,54.19313 -10.39231,75.97242 -32.32758,96.46571 -19.04004,17.78838 -38.16159,24.20858 -82.14647,27.58127 -19.33357,1.48247 -187.07639,1.37614 -207.26978,-0.13138 z m 137.09241,-82.87838 c 104.95596,-26.01306 140.4707,-157.06244 62.8441,-231.8947 -17.29122,-16.6688 -37.09373,-27.94884 -59.94269,-34.14498 -10.75467,-2.91643 -13.57713,-3.17079 -35.18441,-3.17079 -21.75338,0 -24.38115,0.24076 -35.51054,3.25352 -70.01878,18.95431 -112.79458,88.54937 -98.62976,160.46797 10.73946,54.5271 55.05848,97.28347 111.25089,107.32827 13.08725,2.33944 42.23256,1.36783 55.17241,-1.83929 z m 123.7934,-246.28742 c 10.62591,-4.94799 18.60595,-17.41393 18.60595,-29.065089 0,-11.731437 -8.06288,-24.401477 -18.71476,-29.408452 -7.3752,-3.466758 -20.24939,-3.466758 -27.6246,0 -10.65188,5.006975 -18.71476,17.677015 -18.71476,29.408452 0,17.546419 14.6364,31.901169 32.52706,31.901169 5.69538,0 9.49133,-0.77333 13.92111,-2.83608 z"
       id="path848" />
    <path
       style="fill:#ffffff;fill-opacity:1;stroke-width:4.34377;stroke-linecap:round;stroke-linejoin:round;paint-order:stroke fill markers"
       d="m 249.98694,327.80455 c -34.25207,-3.9036 -62.60263,-27.10219 -74.28005,-60.78163 -3.04132,-8.7716 -3.3394,-11.15322 -3.31722,-26.50353 0.0215,-14.85622 0.3923,-17.9664 3.11216,-26.10194 4.46621,-13.35912 10.93736,-24.14012 20.58792,-34.29965 24.34679,-25.63084 59.53473,-34.33151 92.49246,-22.86994 12.9753,4.51236 21.1294,9.88334 33.19507,21.86505 8.90128,8.83934 11.89328,12.78808 15.97455,21.08266 13.82193,28.09114 12.99504,58.60842 -2.28928,84.48756 -17.61318,29.82232 -51.62238,46.97956 -85.47561,43.12142 z"
       id="path850" />
  </g>
</svg>
