<?xml version="1.0" encoding="UTF-8" standalone="no"?>
<svg
   aria-hidden="true"
   focusable="false"
   data-prefix="fab"
   data-icon="linkedin"
   class="svg-inline--fa fa-linkedin fa-w-14"
   role="img"
   viewBox="0 0 64 64"
   version="1.1"
   id="svg3253"
   sodipodi:docname="linkedin.svg"
   width="64"
   height="64"
   inkscape:version="1.2.1 (9c6d41e410, 2022-07-14)"
   xmlns:inkscape="http://www.inkscape.org/namespaces/inkscape"
   xmlns:sodipodi="http://sodipodi.sourceforge.net/DTD/sodipodi-0.dtd"
   xmlns="http://www.w3.org/2000/svg"
   xmlns:svg="http://www.w3.org/2000/svg"
   xmlns:rdf="http://www.w3.org/1999/02/22-rdf-syntax-ns#"
   xmlns:cc="http://creativecommons.org/ns#"
   xmlns:dc="http://purl.org/dc/elements/1.1/">
  <metadata
     id="metadata3259">
    <rdf:RDF>
      <cc:Work
         rdf:about="">
        <dc:format>image/svg+xml</dc:format>
        <dc:type
           rdf:resource="http://purl.org/dc/dcmitype/StillImage" />
        <dc:title />
      </cc:Work>
    </rdf:RDF>
  </metadata>
  <defs
     id="defs3257" />
  <sodipodi:namedview
     pagecolor="#ffffff"
     bordercolor="#666666"
     borderopacity="1"
     objecttolerance="10"
     gridtolerance="10"
     guidetolerance="10"
     inkscape:pageopacity="0"
     inkscape:pageshadow="2"
     inkscape:window-width="1920"
     inkscape:window-height="1027"
     id="namedview3255"
     showgrid="false"
     inkscape:zoom="2.3478155"
     inkscape:cx="1.4907475"
     inkscape:cy="46.000207"
     inkscape:window-x="-8"
     inkscape:window-y="22"
     inkscape:window-maximized="1"
     inkscape:current-layer="svg3253"
     inkscape:document-rotation="0"
     inkscape:pagecheckerboard="true"
     showguides="true"
     inkscape:showpageshadow="2"
     inkscape:deskcolor="#d1d1d1" />
  <path
     fill="currentColor"
     d="M 57.716017,2.953668 H 6.7558183 c -2.3350679,0 -4.2323112,1.9237755 -4.2323112,4.2853784 V 58.106369 c 0,2.361604 1.8972433,4.285382 4.2323112,4.285382 H 57.716017 c 2.335068,0 4.245577,-1.923778 4.245577,-4.285382 V 7.2390464 c 0,-2.3616029 -1.910509,-4.2853784 -4.245577,-4.2853784 z M 20.48761,53.900596 H 11.678036 V 25.534832 h 8.82284 V 53.900596 Z M 16.082824,21.660743 c -2.825966,0 -5.107962,-2.295266 -5.107962,-5.107962 0,-2.812694 2.281996,-5.107962 5.107962,-5.107962 2.812694,0 5.107958,2.295268 5.107958,5.107962 0,2.825965 -2.281995,5.107962 -5.107958,5.107962 z M 53.51024,53.900596 H 44.700668 V 40.10247 c 0,-3.290323 -0.06635,-7.522633 -4.577263,-7.522633 -4.590531,0 -5.293705,3.582206 -5.293705,7.28382 V 53.900596 H 26.020127 V 25.534832 h 8.451353 v 3.874089 h 0.119408 c 1.1808,-2.228927 4.059833,-4.577263 8.345212,-4.577263 8.915714,0 10.57414,5.877472 10.57414,13.519511 z"
     id="path3251"
     style="stroke-width:0.132674;fill:#ffffff" />
</svg>
