<?xml version="1.0" encoding="UTF-8" standalone="no"?>
<svg
   xmlns:dc="http://purl.org/dc/elements/1.1/"
   xmlns:cc="http://creativecommons.org/ns#"
   xmlns:rdf="http://www.w3.org/1999/02/22-rdf-syntax-ns#"
   xmlns:svg="http://www.w3.org/2000/svg"
   xmlns="http://www.w3.org/2000/svg"
   xmlns:sodipodi="http://sodipodi.sourceforge.net/DTD/sodipodi-0.dtd"
   xmlns:inkscape="http://www.inkscape.org/namespaces/inkscape"
   width="64"
   height="64"
   version="1.1"
   id="svg4807"
   sodipodi:docname="blender.svg"
   inkscape:version="1.0.2-2 (e86c870879, 2021-01-15)">
  <metadata
     id="metadata4813">
    <rdf:RDF>
      <cc:Work
         rdf:about="">
        <dc:format>image/svg+xml</dc:format>
        <dc:type
           rdf:resource="http://purl.org/dc/dcmitype/StillImage" />
        <dc:title></dc:title>
      </cc:Work>
    </rdf:RDF>
  </metadata>
  <defs
     id="defs4811" />
  <sodipodi:namedview
     pagecolor="#ffffff"
     bordercolor="#666666"
     borderopacity="1"
     objecttolerance="10"
     gridtolerance="10"
     guidetolerance="10"
     inkscape:pageopacity="0"
     inkscape:pageshadow="2"
     inkscape:window-width="1920"
     inkscape:window-height="1017"
     id="namedview4809"
     showgrid="false"
     inkscape:pagecheckerboard="true"
     inkscape:zoom="8"
     inkscape:cx="59.624664"
     inkscape:cy="49.645092"
     inkscape:window-x="-8"
     inkscape:window-y="-8"
     inkscape:window-maximized="1"
     inkscape:current-layer="svg4807"
     inkscape:document-rotation="0" />
  <g
     id="g833"
     transform="matrix(0.49652958,0,0,0.49652958,0.24643002,-4.5219651)">
    <path
       d="m 100.29645,75.381 c -0.23,-4.165 -2.274999,-7.841 -5.352999,-10.444 -3.024,-2.559 -7.087,-4.122 -11.524,-4.122 -4.437,0 -8.5,1.563 -11.524,4.122 -3.078,2.603 -5.12,6.279 -5.355,10.442 -0.235,4.287 1.486,8.27 4.506,11.216 3.079,3.002 7.466,4.888 12.373,4.888 4.907,0 9.297,-1.886 12.376,-4.888 3.02,-2.948 4.737999,-6.929 4.499999,-11.214"
       id="path4803"
       style="fill:#000000"
       inkscape:connector-curvature="0" />
    <path
       d="m 39.657,83.815 c 0.028,1.627 0.55,4.797 1.33,7.278 1.64,5.24 4.424,10.088 8.299,14.364 a 42.897,42.897 0 0 0 14.514,10.42 46.667,46.667 0 0 0 19.064,3.967 46.811,46.811 0 0 0 19.058,-4.03 c 5.649,-2.528 10.536,-6.066 14.509,-10.467 3.867,-4.288 6.647,-9.15 8.29,-14.392 a 36.59,36.59 0 0 0 1.557,-8.033 c 0.207,-2.656 0.119,-5.32 -0.257,-7.978 a 37.1,37.1 0 0 0 -5.29,-14.477 40.573,40.573 0 0 0 -9.65,-10.642 l 0.006,-0.005 -39.052,-29.99 -0.1,-0.08 c -2.567,-1.965 -6.876,-1.96 -9.692,0.013 -2.852,1.995 -3.173,5.289 -0.64,7.372 l -0.007,0.008 16.286,13.25 -49.651,0.05 h -0.07 c -4.102,0.002 -8.043,2.7 -8.829,6.099 -0.797,3.469 1.992,6.343 6.254,6.362 v 0.011 L 50.749,52.868 5.84,87.337 5.668,87.467 c -4.233,3.242 -5.605,8.638 -2.939,12.052 2.711,3.474 8.467,3.477 12.75,0.016 L 39.986,79.481 c 0,0 -0.354,2.71 -0.329,4.334 z m 62.976,9.062 c -5.048,5.15 -12.113,8.066 -19.77,8.08 -7.656,0.017 -14.726,-2.877 -19.777,-8.016 a 23.495,23.495 0 0 1 -5.4,-8.45 21.98,21.98 0 0 1 -1.241,-9.439 22.325,22.325 0 0 1 2.71,-8.89 24.552,24.552 0 0 1 6.008,-7.145 c 4.907,-4.002 11.153,-6.166 17.695,-6.174 6.542,-0.008 12.788,2.138 17.695,6.124 a 24.436,24.436 0 0 1 6.008,7.12 22.375,22.375 0 0 1 2.71,8.885 21.996,21.996 0 0 1 -1.241,9.438 23.623,23.623 0 0 1 -5.397,8.467"
       fill="#e87d0d"
       id="path4805"
       style="fill:#000000" />
  </g>
</svg>
