<?xml version="1.0" encoding="UTF-8" standalone="no"?>
<svg
   xmlns:dc="http://purl.org/dc/elements/1.1/"
   xmlns:cc="http://creativecommons.org/ns#"
   xmlns:rdf="http://www.w3.org/1999/02/22-rdf-syntax-ns#"
   xmlns:svg="http://www.w3.org/2000/svg"
   xmlns="http://www.w3.org/2000/svg"
   xmlns:sodipodi="http://sodipodi.sourceforge.net/DTD/sodipodi-0.dtd"
   xmlns:inkscape="http://www.inkscape.org/namespaces/inkscape"
   viewBox="0 0 64 64"
   version="1.1"
   id="svg4"
   sodipodi:docname="cplusplus.svg"
   width="64"
   height="64"
   inkscape:version="1.0.2-2 (e86c870879, 2021-01-15)">
  <metadata
     id="metadata10">
    <rdf:RDF>
      <cc:Work
         rdf:about="">
        <dc:format>image/svg+xml</dc:format>
        <dc:type
           rdf:resource="http://purl.org/dc/dcmitype/StillImage" />
        <dc:title></dc:title>
      </cc:Work>
    </rdf:RDF>
  </metadata>
  <defs
     id="defs8" />
  <sodipodi:namedview
     pagecolor="#ffffff"
     bordercolor="#666666"
     borderopacity="1"
     objecttolerance="10"
     gridtolerance="10"
     guidetolerance="10"
     inkscape:pageopacity="0"
     inkscape:pageshadow="2"
     inkscape:window-width="1920"
     inkscape:window-height="1017"
     id="namedview6"
     showgrid="false"
     inkscape:pagecheckerboard="true"
     inkscape:zoom="8.5"
     inkscape:cx="19.692834"
     inkscape:cy="30.160864"
     inkscape:window-x="-8"
     inkscape:window-y="-8"
     inkscape:window-maximized="1"
     inkscape:current-layer="svg4" />
  <path
     d="M 56.902115,14.455842 34.073374,1.6248406 a 5.7817446,5.7817446 0 0 0 -5.612292,0 L 5.6323402,14.455842 A 5.5119751,5.5119751 0 0 0 2.799082,19.242556 v 25.662 c 0,1.969724 1.0845006,3.806598 2.8332582,4.786715 l 22.8287418,12.831 c 0.867601,0.488025 1.836874,0.730682 2.806146,0.730682 0.969273,0 1.938545,-0.244012 2.806146,-0.732038 L 56.902115,49.691271 a 5.5119751,5.5119751 0 0 0 2.833258,-4.786715 v -25.662 c 0,-1.969723 -1.084501,-3.806596 -2.833258,-4.786714 z M 31.267228,48.341068 c -8.970177,0 -16.267512,-7.297335 -16.267512,-16.267512 0,-8.970177 7.297335,-16.26751 16.267512,-16.26751 5.125621,0 9.859467,2.377766 12.936739,6.428377 l -5.941709,3.436511 a 9.4798923,9.4798923 0 0 0 -6.99503,-3.086759 c -5.232716,0 -9.489381,4.256665 -9.489381,9.489381 0,5.232717 4.256665,9.489382 9.489381,9.489382 a 9.4798923,9.4798923 0 0 0 6.99503,-3.086761 l 5.941709,3.436512 A 16.173973,16.173973 0 0 1 31.267228,48.341068 Z M 47.53474,33.429182 h -2.711252 v 2.711252 H 42.112236 V 33.429182 H 39.400984 V 30.71793 h 2.711252 v -2.711251 h 2.711252 v 2.711251 h 2.711252 z m 9.489381,0 h -2.711252 v 2.711252 H 51.601617 V 33.429182 H 48.890365 V 30.71793 h 2.711252 v -2.711251 h 2.711252 v 2.711251 h 2.711252 z"
     id="path2"
     style="stroke-width:1.35562" />
</svg>
