<?xml version="1.0" encoding="UTF-8" standalone="no"?>
<svg
   xmlns:dc="http://purl.org/dc/elements/1.1/"
   xmlns:cc="http://creativecommons.org/ns#"
   xmlns:rdf="http://www.w3.org/1999/02/22-rdf-syntax-ns#"
   xmlns:svg="http://www.w3.org/2000/svg"
   xmlns="http://www.w3.org/2000/svg"
   xmlns:sodipodi="http://sodipodi.sourceforge.net/DTD/sodipodi-0.dtd"
   xmlns:inkscape="http://www.inkscape.org/namespaces/inkscape"
   width="64"
   height="64"
   data-name="Layer 1"
   viewBox="0 0 64 64"
   version="1.1"
   id="svg6"
   sodipodi:docname="csharp.svg"
   inkscape:version="1.0.2-2 (e86c870879, 2021-01-15)">
  <metadata
     id="metadata12">
    <rdf:RDF>
      <cc:Work
         rdf:about="">
        <dc:format>image/svg+xml</dc:format>
        <dc:type
           rdf:resource="http://purl.org/dc/dcmitype/StillImage" />
        <dc:title></dc:title>
      </cc:Work>
    </rdf:RDF>
  </metadata>
  <defs
     id="defs10" />
  <sodipodi:namedview
     pagecolor="#ffffff"
     bordercolor="#666666"
     borderopacity="1"
     objecttolerance="10"
     gridtolerance="10"
     guidetolerance="10"
     inkscape:pageopacity="0"
     inkscape:pageshadow="2"
     inkscape:window-width="1920"
     inkscape:window-height="1017"
     id="namedview8"
     showgrid="false"
     inkscape:pagecheckerboard="true"
     inkscape:zoom="8.8541667"
     inkscape:cx="21.664775"
     inkscape:cy="28.78914"
     inkscape:window-x="-8"
     inkscape:window-y="-8"
     inkscape:window-maximized="1"
     inkscape:current-layer="svg6" />
  <path
     d="M 56.856023,14.738025 34.245908,1.6507587 a 5.0141251,5.0141251 0 0 0 -5.000824,0 L 6.6349696,14.738025 a 4.9875252,4.9875252 0 0 0 -2.4871123,4.322521 v 26.147931 a 4.9875252,4.9875252 0 0 0 2.4871123,4.322522 L 29.245084,62.618266 a 5.0141251,5.0141251 0 0 0 5.000824,0 L 56.856023,49.530999 a 4.9875252,4.9875252 0 0 0 2.487112,-4.322522 V 19.060546 A 4.9875252,4.9875252 0 0 0 56.856023,14.738025 Z M 31.306594,49.6241 c -11.371557,0 -17.210288,-7.235237 -17.210288,-17.290086 0,-10.054851 6.650034,-17.79549 17.68909,-17.79549 12.315862,0 15.747279,8.113041 15.96008,11.970059 H 37.850227 C 37.238423,23.76877 35.549315,21.86686 31.599195,21.86686 c -4.628424,0 -7.248536,3.72402 -7.248536,10.227752 0,7.142135 2.779714,10.400653 7.208637,10.400653 a 6.1446308,6.1446308 0 0 0 6.23773,-4.415623 h 9.935149 C 46.468669,43.599169 42.186048,49.6241 31.306594,49.6241 Z M 54.47531,31.004006 h -1.330006 l -0.399001,1.635908 h 1.077303 v 1.476307 h -1.409807 l -0.571901,2.380713 h -1.330007 l 0.585202,-2.380713 h -1.476308 l -0.625102,2.327512 h -1.330007 l 0.585203,-2.380712 h -1.037405 v -1.476306 h 1.409808 l 0.372401,-1.635909 h -1.130506 v -1.476307 h 1.489608 l 0.545302,-2.194512 h 1.330007 l -0.492102,2.194512 h 1.476307 l 0.532004,-2.194512 h 1.330006 l -0.545303,2.194512 h 0.957605 z"
     id="path2"
     style="stroke-width:1.33" />
</svg>
