<?xml version="1.0" encoding="UTF-8" standalone="no"?>
<svg
   xmlns:dc="http://purl.org/dc/elements/1.1/"
   xmlns:cc="http://creativecommons.org/ns#"
   xmlns:rdf="http://www.w3.org/1999/02/22-rdf-syntax-ns#"
   xmlns:svg="http://www.w3.org/2000/svg"
   xmlns="http://www.w3.org/2000/svg"
   xmlns:xlink="http://www.w3.org/1999/xlink"
   xmlns:sodipodi="http://sodipodi.sourceforge.net/DTD/sodipodi-0.dtd"
   xmlns:inkscape="http://www.inkscape.org/namespaces/inkscape"
   viewBox="0 0 32 32"
   version="1.1"
   id="svg3939"
   sodipodi:docname="face-rig.svg"
   inkscape:version="0.92.5 (2060ec1f9f, 2020-04-08)">
  <metadata
     id="metadata3943">
    <rdf:RDF>
      <cc:Work
         rdf:about="">
        <dc:format>image/svg+xml</dc:format>
        <dc:type
           rdf:resource="http://purl.org/dc/dcmitype/StillImage" />
        <dc:title>file_type_maya</dc:title>
      </cc:Work>
    </rdf:RDF>
  </metadata>
  <sodipodi:namedview
     pagecolor="#ffffff"
     bordercolor="#666666"
     borderopacity="1"
     objecttolerance="10"
     gridtolerance="10"
     guidetolerance="10"
     inkscape:pageopacity="0"
     inkscape:pageshadow="2"
     inkscape:window-width="1884"
     inkscape:window-height="1052"
     id="namedview3941"
     showgrid="false"
     inkscape:pagecheckerboard="true"
     inkscape:zoom="19.003495"
     inkscape:cx="20.923464"
     inkscape:cy="13.179654"
     inkscape:window-x="36"
     inkscape:window-y="0"
     inkscape:window-maximized="1"
     inkscape:current-layer="g5150" />
  <defs
     id="defs3921">
    <linearGradient
       id="a"
       x1="-611.348"
       y1="-67.488"
       x2="-600.272"
       y2="-65.335"
       gradientTransform="matrix(1.437, 0, 0, -1.437, 894.417, -82.292)"
       gradientUnits="userSpaceOnUse">
      <stop
         offset="0"
         stop-color="#0f6067"
         id="stop3872" />
      <stop
         offset="0.5"
         stop-color="#05abac"
         id="stop3874" />
      <stop
         offset="1"
         stop-color="#58bec4"
         id="stop3876" />
    </linearGradient>
    <linearGradient
       id="b"
       x1="-603.594"
       y1="-77.699"
       x2="-602.011"
       y2="-59.604"
       gradientTransform="matrix(1.437, 0, 0, -1.437, 894.417, -82.292)"
       gradientUnits="userSpaceOnUse">
      <stop
         offset="0"
         stop-color="#117c83"
         id="stop3879" />
      <stop
         offset="0.5"
         stop-color="#21b5b5"
         id="stop3881" />
      <stop
         offset="1"
         stop-color="#7ed4d4"
         id="stop3883" />
    </linearGradient>
    <linearGradient
       id="c"
       x1="-612.757"
       y1="-59.906"
       x2="-616.934"
       y2="-72.76"
       gradientTransform="matrix(1.437, 0, 0, -1.437, 894.417, -82.292)"
       gradientUnits="userSpaceOnUse">
      <stop
         offset="0"
         stop-color="#9accd3"
         id="stop3886" />
      <stop
         offset="0.5"
         stop-color="#72aeb3"
         id="stop3888" />
      <stop
         offset="1"
         stop-color="#317d7f"
         id="stop3890" />
    </linearGradient>
    <linearGradient
       id="d"
       x1="-621.851"
       y1="-74.579"
       x2="-614.84"
       y2="-72.301"
       gradientTransform="matrix(1.437, 0, 0, -1.437, 894.417, -82.292)"
       gradientUnits="userSpaceOnUse">
      <stop
         offset="0"
         stop-color="#21626e"
         id="stop3893" />
      <stop
         offset="0.5"
         stop-color="#157c84"
         id="stop3895" />
      <stop
         offset="1"
         stop-color="#03a3a5"
         id="stop3897" />
    </linearGradient>
    <linearGradient
       id="e"
       x1="-616.36902"
       y1="-64.469002"
       x2="-625.34003"
       y2="-72.834999"
       gradientTransform="matrix(1.437,0,0,-1.437,894.417,-82.292)"
       gradientUnits="userSpaceOnUse"
       xlink:href="#c">
      <stop
         offset="0"
         stop-color="#0b7c81"
         id="stop3900" />
      <stop
         offset="0.5"
         stop-color="#068d90"
         id="stop3902" />
      <stop
         offset="1"
         stop-color="#16b1b1"
         id="stop3904" />
    </linearGradient>
    <linearGradient
       id="f"
       x1="-608.072"
       y1="-74.678"
       x2="-603.488"
       y2="-70.966"
       gradientTransform="matrix(1.437, 0, 0, -1.437, 894.417, -82.292)"
       gradientUnits="userSpaceOnUse">
      <stop
         offset="0"
         stop-color="#0a8a8f"
         id="stop3907" />
      <stop
         offset="0.5"
         stop-color="#0f7c82"
         id="stop3909" />
      <stop
         offset="1"
         stop-color="#1a5964"
         id="stop3911" />
    </linearGradient>
    <linearGradient
       id="g"
       x1="-601.134"
       y1="-70.113"
       x2="-606.008"
       y2="-67.067"
       gradientTransform="matrix(1.437, 0, 0, -1.437, 894.417, -82.292)"
       gradientUnits="userSpaceOnUse">
      <stop
         offset="0"
         stop-color="#256a77"
         id="stop3914" />
      <stop
         offset="0.5"
         stop-color="#0d9499"
         id="stop3916" />
      <stop
         offset="1"
         stop-color="#06a0a2"
         id="stop3918" />
    </linearGradient>
  </defs>
  <title
     id="title3923">file_type_maya</title>
  <g
     id="g5150"
     transform="matrix(0.31224754,0,0,0.31224754,37.100399,15.918829)">
    <path
       style="fill:#000000;fill-opacity:1;stroke-width:0.45658141"
       d="m -110.99618,43.318003 -1.77262,-1.772612 0.0798,-20.02915 c 0.0439,-11.016035 0.14573,-19.104576 0.22634,-17.974537 0.40519,5.6796537 2.4315,12.96337 3.8119,13.702137 0.4841,0.259086 5.15611,0.451886 10.950255,0.451886 h 10.105901 l -0.944253,1.326083 c -0.51934,0.729343 -0.944254,1.551189 -0.944254,1.826325 0,0.275135 -0.217588,0.500245 -0.483527,0.500245 -0.26594,0 -0.356546,0.205461 -0.201345,0.45658 0.183371,0.296701 -2.135978,0.456582 -6.6235,0.456582 -6.572117,0 -8.671977,0.341633 -8.671977,1.410859 0,0.984432 3.67463,5.789092 6.452784,8.437155 3.468156,3.305754 9.028544,7.126057 12.978871,8.917222 3.686099,1.671357 10.008631,3.309275 11.413281,2.956731 0.783235,-0.196578 1.82607,-1.533448 3.681968,-4.720117 1.424082,-2.445222 3.997536,-6.838311 5.718785,-9.762414 1.721252,-2.924107 3.129545,-5.536516 3.129545,-5.805351 0,-0.933453 -1.784685,-1.434085 -5.112301,-1.434085 -3.119413,0 -3.407457,-0.0845 -4.253394,-1.247833 -0.499063,-0.68631 -1.322385,-1.675663 -1.829603,-2.198572 l -0.922218,-0.950734 4.803159,0.17788 c 4.252864,0.157492 5.19124,0.04333 8.190455,-0.996522 1.863011,-0.645916 3.463334,-1.098352 3.556272,-1.005415 0.09293,0.09293 -0.243035,1.655761 -0.746604,3.472945 l -0.915572,3.30397 1.373999,-0.201663 c 1.035262,-0.151941 1.314174,-0.04575 1.131331,0.430729 -0.148201,0.38621 -0.04392,0.509546 0.267918,0.316827 0.310169,-0.191695 0.420128,-0.06659 0.28013,0.318721 -0.126746,0.348856 -0.476867,0.577826 -0.778042,0.508824 -0.301174,-0.069 -0.416215,0.08711 -0.255644,0.34692 0.160566,0.259808 -2.000365,4.457161 -4.802082,9.327451 -2.893004,5.028984 -5.019811,9.219223 -4.922271,9.697872 0.415996,2.041325 11.181067,0.04578 17.874574,-3.313466 7.051511,-3.538913 15.367941,-10.616587 15.367941,-13.078853 0,-1.673585 -10.863163,-20.4328491 -11.832307,-20.4328491 -0.500625,0 -1.758136,1.5836572 -2.888184,3.6372641 -0.995668,1.809396 -1.71644,1.421082 -1.71644,-0.9247233 0,-2.1507219 -0.404418,-2.2552197 -1.739471,-0.4494585 -1.898895,2.5683848 -8.482049,5.5127458 -13.81382,6.1783228 -3.016246,0.37652 -10.373815,-0.3904 -13.295285,-1.385844 -1.17401,-0.400024 -2.673293,-1.226595 -3.33174,-1.836822 -0.658446,-0.61023 -1.289321,-1.109506 -1.401942,-1.109506 -0.112622,0 -0.204766,0.705126 -0.204766,1.566945 0,1.707064 1.36251,3.022935 4.128467,3.987152 1.284805,0.447889 1.358511,0.569138 0.72877,1.198879 -0.86937,0.869368 -8.384059,1.456873 -7.863619,0.614786 0.176431,-0.285472 0.6976,-0.519042 1.158152,-0.519042 2.139993,0 2.457319,0.634622 -12.784949,-25.5685583 -7.045358,-12.1117597 -7.183348,-12.3276977 -7.877468,-12.3276977 -1.88831,0 -5.43505,10.6181966 -5.94788,17.8066746 -0.0806,1.130039 -0.18246,-6.8418031 -0.22634,-17.7152036 -0.0681,-16.887179 0.0212,-19.965109 0.61283,-21.109161 1.47526,-2.852818 -0.59452,-2.724544 43.962192,-2.724544 h 40.590897 l 1.551413,1.043999 c 2.797907,1.882814 2.724498,0.625332 2.588401,44.3372394 -0.11893,38.1973226 -0.158132,39.8218076 -0.990649,41.0501306 -1.84806,2.72669 0.266909,2.602006 -44.137491,2.602006 h -40.712143 z m 81.903231,-22.768641 c 0.917057,-1.018327 2.482201,-4.918071 3.619116,-9.017484 1.170793,-4.2215556 1.591414,-13.2384129 0.836211,-17.9258252 -0.809615,-5.0250898 -2.165567,-9.1399768 -3.193049,-9.6898668 -1.065025,-0.569987 -15.994329,-0.626677 -15.994329,-0.06073 0,0.221831 0.37588,0.501625 0.835289,0.621763 2.047397,0.535407 3.168232,9.5702692 1.927221,15.53503648 l -0.548104,2.63439392 1.93428,3.3011658 c 1.063853,1.8156371 3.310931,5.7114128 4.993503,8.6572768 4.162113,7.287053 4.27373,7.405746 5.589862,5.944275 z m -1.760874,-1.369744 c -1.645615,-2.68701 -3.772555,-7.003745 -2.980805,-6.049705 0.914231,1.101635 0.947628,1.107562 0.957427,0.169904 0.0055,-0.534351 0.303362,-1.673294 0.661728,-2.530986 0.358367,-0.8576879 0.880202,-3.6371689 1.159639,-6.1766153 0.600565,-5.45782675 0.09401,-10.7029611 -1.508298,-15.6179317 -0.684826,-2.100648 -0.880042,-3.289083 -0.561978,-3.421243 0.268044,-0.111375 -0.231761,-0.221868 -1.110681,-0.245539 -2.865134,-0.07716 -0.487386,-0.927597 2.614819,-0.935225 3.41444,-0.0085 3.679435,0.281149 5.216963,5.7002753 1.33642,4.7103003 1.461756,15.0832904 0.241797,20.0114657 -0.835453,3.374904 -3.403326,9.894617 -3.897123,9.894617 -0.167283,0 -0.524352,-0.359558 -0.793488,-0.799017 z M -58.589232,8.9252601 c 0.695744,-0.6957389 1.502738,-2.4086359 2.024679,-4.2974996 0.477319,-1.7273707 1.1397,-3.3461344 1.471963,-3.5972542 0.332264,-0.25111978 1.323197,-1.58662045 2.20207,-2.9677793 l 1.597953,-2.5111977 -1.112684,-1.846303 c -0.611975,-1.0154667 -1.960731,-2.3343786 -2.997239,-2.9309157 -1.132075,-0.6515394 -1.637004,-1.1671296 -1.264575,-1.2912716 0.340989,-0.113663 0.75031,-0.02752 0.909606,0.191426 0.159298,0.218949 0.54646,0.4186335 0.860359,0.4437458 1.59584,0.127667 1.716217,0.1940597 1.081126,0.5962901 -0.496045,0.3141688 -0.423657,0.4655001 0.338349,0.7073516 0.533174,0.1692225 1.176707,0.179559 1.430073,0.022972 0.253366,-0.1565916 0.460667,0.03561 0.460667,0.4271083 0,0.3914998 0.227442,0.7118182 0.505432,0.7118182 0.277984,0 0.385378,0.3128527 0.238646,0.6952278 -0.146732,0.3823755 0.128363,1.0903771 0.611326,1.5733375 0.657477,0.6574759 0.814309,1.271252 0.624196,2.442796 -0.284103,1.75069801 0.119497,2.18398828 2.166315,2.32569338 1.102826,0.0763502 1.292692,-0.0528265 1.076911,-0.73269268 -0.146841,-0.4626649 -0.03596,-0.825385 0.25233,-0.825385 0.282862,0 0.387314,-0.2054617 0.232112,-0.4565815 -0.1552,-0.2511197 -0.09323,-0.4565814 0.137709,-0.4565814 0.725399,0 0.518645,-6.4449398 -0.269985,-8.4159121 -0.743004,-1.856949 -2.260922,-3.911786 -2.889663,-3.911786 -0.806066,0 -3.044749,-2.619329 -3.316959,-3.880942 -0.278637,-1.291422 -0.255977,-1.319066 0.396337,-0.483461 0.380532,0.487457 0.691875,1.04189 0.691875,1.232075 0,0.597836 2.190719,2.739029 2.410357,2.355866 1.009661,-1.761384 1.206294,-3.971116 0.813578,-9.142954 -0.464042,-6.111156 -1.018884,-7.81231 -2.831357,-8.681006 -1.045882,-0.501279 -1.535711,-0.420344 -3.876783,0.640575 -2.1224,0.961821 -3.271309,1.192883 -5.524809,1.11112 -2.516324,-0.0913 -2.98012,0.03173 -4.012788,1.064392 -1.025774,1.025775 -1.09822,1.292791 -0.596336,2.197982 0.314205,0.5667 0.522538,1.199731 0.462969,1.406738 -0.05957,0.207004 0.08369,0.257704 0.318373,0.112664 0.519139,-0.320843 1.946393,0.173677 1.691612,0.586113 -0.100097,0.162026 1.313073,0.294594 3.140376,0.294594 2.486145,0 3.26679,0.144951 3.101553,0.575904 -0.14439,0.376588 0.03516,0.477673 0.518836,0.292073 0.406809,-0.156104 0.859447,-0.761142 1.005868,-1.344524 0.434824,-1.732483 1.552226,-0.841851 1.552226,1.237213 0,0.992433 0.172157,1.698023 0.382574,1.56798 0.210415,-0.130044 0.160141,0.474214 -0.111721,1.342798 -0.485907,1.552447 -1.170643,2.128927 -1.197901,1.008515 -0.0077,-0.31674 -0.22099,-0.215145 -0.479269,0.22829 -0.79763,1.369446 -6.168913,0.78307 -9.587859,-1.046693 -2.660494,-1.423853 -7.423263,-0.591828 -8.124336,1.419271 -0.846975,2.429638 -6.640485,5.448836 -10.45572,5.448836 -1.37819,0 -1.54793,-0.121904 -1.330021,-0.955191 0.231814,-0.886456 0.191834,-0.90274 -0.555624,-0.2263 -1.07308,0.971123 -2.011396,4.008341 -1.362275,4.40952 0.310422,0.19185 0.258311,0.383164 -0.1467,0.538581 -0.345475,0.132571 -0.985834,-0.02051 -1.423019,-0.340194 -0.74173,-0.542366 -0.716481,-0.674405 0.377588,-1.974634 0.870236,-1.034216 1.097254,-1.693091 0.880678,-2.555996 l -0.291792,-1.162594 -0.806196,0.995609 -0.806196,0.995609 -0.335316,-1.056486 -0.335315,-1.056488 -0.907192,1.308427 -0.907191,1.308427 0.280622,-1.974073 c 0.175294,-1.233119 0.113805,-1.870973 -0.163818,-1.699392 -0.244444,0.151075 -0.689676,-0.183543 -0.989404,-0.743591 -0.40483,-0.756428 -0.410719,-1.06302 -0.02291,-1.19229 0.287128,-0.09571 0.53028,-0.619185 0.540334,-1.163278 0.0162,-0.87643 0.100715,-0.836999 0.741054,0.345733 1.032077,1.906295 2.031199,2.831364 3.416441,3.16322 0.849253,0.203452 1.285675,0.08697 1.469561,-0.392229 0.143858,-0.374893 0.600166,-0.681623 1.014016,-0.681623 0.527539,0 0.68111,-0.272815 0.513773,-0.912709 -0.131272,-0.501989 -0.0346,-1.038831 0.214816,-1.192982 0.249422,-0.154151 0.35612,-0.652638 0.237105,-1.107748 -0.141211,-0.539993 -0.01393,-0.749784 0.366349,-0.603855 0.340508,0.130664 0.47831,0.622953 0.331513,1.184304 -0.192437,0.735878 -0.08431,0.896637 0.462047,0.686978 0.470963,-0.180724 0.795672,0.04138 0.955822,0.653801 0.133402,0.510129 0.442552,0.803899 0.686998,0.652824 0.648858,-0.401016 0.105029,-2.011868 -0.772279,-2.287539 -0.413688,-0.129991 -0.170692,-0.166343 0.539992,-0.08078 1.24385,0.149749 3.048098,-0.13867 5.214133,-0.833511 0.652386,-0.209278 1.027309,-0.141855 1.027309,0.184746 0,0.282862 -0.237209,0.367693 -0.527127,0.188512 -0.319197,-0.197274 -0.403481,-0.125716 -0.213669,0.181405 0.455986,0.737799 1.661367,0.130445 2.116404,-1.066389 0.309251,-0.813395 0.883425,-1.099856 2.707317,-1.350705 1.273154,-0.175102 2.775849,-0.715627 3.339326,-1.201165 l 1.024504,-0.882793 -3.454621,0.111983 c -2.976842,0.0965 -3.632604,-0.02802 -4.741534,-0.9003 -2.227189,-1.751908 -7.821591,-0.940758 -9.772609,1.41696 -0.431164,0.521043 -0.849932,0.623869 -1.381711,0.339268 -1.087272,-0.58189 -5.894923,-1.402782 -8.568305,-1.463012 -4.049342,-0.09123 -5.061624,1.478788 -4.162814,6.456383 1.013994,5.615454 3.044331,10.396306 5.669664,13.3503951 l 1.517535,1.7075685 1.25223,-2.3924401 c 1.204311,-2.3008875 1.258332,-2.3419205 1.41166,-1.0722392 0.08769,0.726111 -0.06977,1.4618518 -0.34989,1.6349784 -1.470202,0.9086354 -3.422643,6.8613198 -2.250466,6.8613198 0.242412,0 0.399948,0.77048118 0.350082,1.71218032 -0.102304,1.93195118 0.411662,4.65399818 1.022459,5.41510578 0.223716,0.2787749 0.922067,0.4083527 1.55189,0.2879522 0.952749,-0.1821303 1.092357,-0.081376 0.830996,0.5997197 -0.244002,0.6358627 -0.143537,0.7531584 0.450004,0.5253927 0.500698,-0.1921339 0.76414,-0.062054 0.76414,0.3773144 0,0.8758784 1.100137,0.8606743 1.835482,-0.02534 0.317653,-0.3827476 0.685695,-0.5877619 0.817871,-0.4555815 0.132176,0.1321757 0.616552,-0.1001648 1.07639,-0.516316 0.888055,-0.8036974 1.182683,-3.8111946 0.373362,-3.8111946 -0.27054,0 -0.175728,-0.6868446 0.22829,-1.65379265 0.38005,-0.90958873 0.690999,-1.99383865 0.690999,-2.40944545 0,-0.4156069 0.616385,-1.4305039 1.369745,-2.2553269 0.753359,-0.8248229 1.369744,-1.7045845 1.369744,-1.9550259 0,-0.2504417 0.183932,-0.3416716 0.408739,-0.202734 0.224805,0.1389382 0.514537,-0.023094 0.643848,-0.3600696 0.270801,-0.7056982 4.399416,-2.7573088 4.780952,-2.3757734 0.139818,0.139817 0.04325,0.2542134 -0.214599,0.2542134 -0.257846,0 -1.231296,0.7191162 -2.163223,1.5980355 -0.931926,0.8789192 -1.870195,1.5980349 -2.085042,1.5980349 -0.435578,0 -1.728792,2.3492 -2.266139,4.1165796 -0.380459,1.25135866 0.107455,1.96392062 1.688321,2.465667 0.523053,0.166013 1.200179,0.6020756 1.504725,0.9690301 0.308771,0.3720454 1.32498,0.6671887 2.297193,0.6671887 0.95891,0 1.870455,0.2054618 2.025656,0.4565815 0.155201,0.2511197 0.515669,0.4565814 0.801041,0.4565814 0.285373,0 -0.240406,-0.6954602 -1.168399,-1.5454688 -2.139717,-1.959903 -2.210307,-2.75656271 -0.203369,-2.29518854 2.076892,0.47745586 8.103585,0.3458417 9.474064,-0.20690261 0.890078,-0.35898762 0.953178,-0.46674579 0.286532,-0.48931324 -0.694825,-0.0235227 -0.751889,-0.1530931 -0.304718,-0.69190261 0.779563,-0.9393135 0.170936,-2.4306678 -1.303024,-3.1928825 -2.056355,-1.0633832 -2.568471,-1.92514 -1.893521,-3.1862996 0.918844,-1.7168735 2.388479,-2.1578301 4.191432,-1.25762 1.823001,0.9102205 2.171852,2.3090594 0.869724,3.4874697 -1.129692,1.0223555 -1.214283,3.0963026 -0.168931,4.141655 0.751364,0.7513659 2.434566,0.7420352 4.37221,-0.024235 1.927481,-0.7622536 -0.419535,4.7405031 -2.918902,6.843581 -1.697173,1.4280771 -3.359221,1.3796886 -6.838782,-0.1991106 -1.908085,-0.8657629 -3.597322,-1.1921044 -3.597322,-0.6949557 0,0.2567677 1.806354,2.3751319 3.803683,4.4606907 1.190696,1.2432891 1.489703,1.3332261 3.796442,1.1419331 1.896782,-0.157292 2.784472,-0.488163 3.660783,-1.3644753 z M -76.138926,-9.6329136 c -1.582188,-0.9842864 3.158976,-2.7752984 5.675065,-2.1438014 l 1.218607,0.305852 -0.971443,0.971443 c -1.021199,1.0211993 -4.787714,1.5722945 -5.922229,0.8665064 z m 5.144099,-0.5175954 c 0.159958,-0.258818 -0.02331,-0.335362 -0.429635,-0.179442 -0.790989,0.303532 -0.935711,0.6307931 -0.27895,0.6307931 0.236299,0 0.555163,-0.2031071 0.708585,-0.4513511 z m 11.068743,-1.647902 c -0.350043,-0.35004 0.135509,-1.681096 0.772304,-2.117132 0.76759,-0.525602 1.174756,-0.409338 1.174756,0.335444 0,0.37668 0.205461,0.684872 0.456582,0.684872 0.717087,0 0.533602,-1.650591 -0.256366,-2.306205 -0.601706,-0.499374 -0.886659,-0.404349 -1.826326,0.609039 -0.612358,0.660402 -1.119624,1.466525 -1.127264,1.791384 -0.0085,0.358038 -0.195831,0.278361 -0.47588,-0.202314 -0.50707,-0.87032 -0.06002,-2.063306 1.149297,-3.066943 1.412905,-1.172606 4.73632,1.213984 4.078322,2.928698 -0.279227,0.727646 -0.957309,0.904839 -2.911528,0.760823 -0.90526,-0.06672 -0.999735,0.01162 -0.456582,0.378579 0.376681,0.254485 0.46229,0.465847 0.190244,0.469691 -0.272049,0.0039 -0.617448,-0.115826 -0.767559,-0.265936 z m -15.721083,-14.040121 c 0.178926,-0.466273 -0.03649,-0.911755 -0.5821,-1.203753 -1.250012,-0.668987 -2.101015,-0.579029 -4.223546,0.446468 -2.104965,1.017008 -2.346277,1.011313 -1.573551,-0.03713 1.905964,-2.586043 8.035239,-2.25973 7.51907,0.400302 -0.07532,0.38817 -0.426519,0.802191 -0.780435,0.920046 -0.440558,0.146706 -0.553908,-0.01915 -0.359438,-0.525928 z m -1.508277,-0.324502 c 0,-0.26594 0.205462,-0.356545 0.456582,-0.201344 0.25112,0.1552 0.456581,0.372787 0.456581,0.483527 0,0.110739 -0.205461,0.201344 -0.456581,0.201344 -0.25112,0 -0.456582,-0.217588 -0.456582,-0.483527 z m 14.58505,-2.641426 c -1.653399,-1.33884 -0.907259,-2.355302 1.723409,-2.347789 3.061401,0.0087 4.049813,0.359663 4.635857,1.645892 0.42248,0.927245 0.378192,1.168524 -0.259402,1.41319 -0.422871,0.162272 -0.835885,0.10398 -0.91781,-0.129539 -0.409878,-1.168372 -1.015615,-1.564634 -2.666633,-1.744474 -1.68126,-0.183133 -1.723945,-0.160282 -0.622721,0.33335 1.297965,0.581826 1.279527,1.671416 -0.02829,1.671416 -0.45349,0 -1.292482,-0.378921 -1.864413,-0.842046 z m 1.623591,33.7159083 c 0.361666,-0.5851913 -1.605678,-0.5851913 -2.511198,0 -0.521128,0.336779 -0.336542,0.444272 0.77207,0.4495911 0.801318,0.00365 1.583927,-0.1984714 1.739128,-0.4495911 z M -61.631675,-8.15704 c 0,-0.6279077 -2.860136,-0.4953047 -3.072725,0.1424597 -0.07974,0.2392108 0.57901,0.4226424 1.463873,0.4076259 0.888106,-0.015071 1.608852,-0.2615034 1.608852,-0.5500856 z M -77.72617,-18.944931 c -0.104634,-0.3139 -0.464191,-0.570727 -0.799018,-0.570727 -0.334826,0 -0.694384,0.256827 -0.799017,0.570727 -0.11317,0.33951 0.210535,0.570728 0.799017,0.570728 0.588483,0 0.912188,-0.231218 0.799018,-0.570728 z m -3.995088,-0.266339 c 0,-0.594503 -0.542772,-0.989883 -0.984294,-0.717006 -0.472206,0.291837 -0.06504,1.09749 0.554658,1.09749 0.2363,0 0.429636,-0.171217 0.429636,-0.380484 z m 8.218466,-1.951272 c 0,-0.224252 -0.308193,-0.407731 -0.684872,-0.407731 -0.37668,0 -0.684872,0.301743 -0.684872,0.670541 0,0.408455 0.267688,0.567822 0.684872,0.407732 0.376679,-0.144545 0.684872,-0.446289 0.684872,-0.670542 z m 42.287324,-1.067492 c 0.139243,-0.362867 -0.420443,-1.647002 -1.243751,-2.853633 -5.007506,-7.338941 -14.638557,-14.243186 -23.40212,-16.77636 -4.764926,-1.377337 -6.285502,-1.454948 -7.260057,-0.370555 -1.286473,1.431459 -7.969232,13.355006 -7.485047,13.355006 0.560791,0 3.952372,-1.936183 3.952372,-2.256326 0,-0.584264 3.038362,-2.418162 5.339218,-3.222651 1.70971,-0.597797 2.628753,-1.523999 1.623649,-1.636294 -0.18834,-0.02104 -0.942886,-0.286255 -1.676773,-0.589362 -0.733886,-0.303106 -1.629973,-0.437656 -1.991306,-0.298999 -0.446555,0.171359 -0.572161,0.03109 -0.392177,-0.437947 0.438067,-1.141575 -0.08642,-0.777684 -0.815134,0.565549 -0.374644,0.690579 -0.689397,0.972417 -0.699452,0.626305 -0.02606,-0.896651 2.711345,-5.55943 3.424439,-5.83307 1.934348,-0.742279 12.359878,3.261493 17.573563,6.748871 3.955118,2.645535 9.847977,8.423874 11.540958,11.316671 l 0.824828,1.409392 -5.847223,-0.07881 c -4.871377,-0.06565 -5.351934,-0.128702 -2.879449,-0.377777 1.632279,-0.164433 2.649921,-0.334433 2.261425,-0.377776 -0.388496,-0.04334 -1.508869,-0.900652 -2.489716,-1.905131 -0.980847,-1.004479 -2.128619,-1.826326 -2.55061,-1.826326 -1.218949,0 -1.896804,3.804561 -0.759605,4.26343 0.313899,0.126661 0.108438,0.246513 -0.456582,0.266339 -0.565019,0.01982 -1.027308,0.241506 -1.027308,0.492626 0,0.284791 2.668166,0.456583 7.09134,0.456583 5.762258,0 7.138796,-0.123655 7.344518,-0.65976 z m -25.498447,-0.624375 c 0.0994,-0.298205 -0.144581,-0.542191 -0.54219,-0.542191 -0.397605,0 -0.722919,0.325315 -0.722919,0.722921 0,0.806289 0.98291,0.665874 1.265109,-0.18073 z m -44.799505,-1.917204 -0.48889,-1.831596 2.949363,-3.004753 c 5.280027,-5.379172 11.639123,-9.114519 19.256599,-11.311361 4.15322,-1.197769 9.510278,-1.966211 9.453737,-1.35609 -0.08544,0.921894 -2.591373,4.496499 -3.152225,4.496499 -0.339202,0 -0.70086,0.308193 -0.803685,0.684871 -0.166181,0.608775 -0.133137,0.608775 0.297396,0 0.266392,-0.376678 0.487496,-0.467313 0.49134,-0.201411 0.0039,0.265904 -0.316437,0.882288 -0.711738,1.369745 -0.395302,0.487455 -0.588637,0.629457 -0.429636,0.315557 0.525955,-1.038329 -0.302812,-1.701481 -0.975944,-0.78092 -0.338348,0.462719 -0.615178,0.624325 -0.615178,0.359124 0,-0.725449 -7.53291,1.883741 -10.326421,3.576785 -1.880769,1.139866 -2.314192,1.604512 -1.929298,2.06828 0.694583,0.836922 4.060909,0.723712 8.289591,-0.27878 2.885579,-0.684084 3.521035,-0.724739 3.324546,-0.212698 -0.340081,0.886236 0.362383,0.789373 1.203689,-0.165977 1.454033,-1.651138 6.34123,-10.677844 6.188325,-11.429905 -0.135388,-0.665901 -0.671652,-0.770748 -3.569025,-0.697788 -4.06762,0.102427 -10.122991,1.766558 -14.499293,3.984681 -6.123271,3.103573 -13.256003,8.890218 -14.916683,12.101612 -0.5816,1.124696 -0.55774,1.404722 0.23014,2.700273 1.1607,1.908617 1.32298,1.823159 0.73329,-0.386148 z m 33.603751,0.807981 c 1.192817,-0.276631 2.168761,-0.758748 2.168761,-1.071371 0,-0.312624 0.256827,-0.672039 0.570726,-0.7987 0.361818,-0.145996 0.297359,-0.243488 -0.176098,-0.266339 -0.410755,-0.01982 -1.335332,0.270881 -2.054617,0.646013 -0.719284,0.375133 -2.078272,0.683325 -3.019971,0.684872 -1.843657,0.003 -1.855141,0.01216 -1.42497,1.133164 0.178319,0.464695 0.5678,0.639809 1.027307,0.461889 0.407055,-0.157611 1.716042,-0.512899 2.908862,-0.789528 z m 7.191156,0.110451 c 0,-0.25112 -0.308192,-0.456581 -0.684872,-0.456581 -0.376679,0 -0.684872,0.205461 -0.684872,0.456581 0,0.25112 0.308193,0.456581 0.684872,0.456581 0.37668,0 0.684872,-0.205461 0.684872,-0.456581 z m 6.558331,-1.013643 c -0.170286,-0.275529 -0.434424,-0.210412 -0.672854,0.16588 -0.624037,0.984862 -0.46901,1.468036 0.273345,0.851936 0.373913,-0.310322 0.553692,-0.768339 0.399509,-1.017816 z M -66.197489,43.37226 c 0,-0.214489 0.745762,-1.610664 1.657243,-3.102612 0.911488,-1.491945 2.061823,-3.380379 2.5563,-4.196518 1.281153,-2.114552 1.463466,-1.835685 0.295993,0.45275 -0.731827,1.434497 -0.798611,1.779458 -0.257572,1.330437 0.401737,-0.333414 0.94489,-0.473657 1.207014,-0.311658 0.262119,0.162001 0.476579,0.07696 0.476579,-0.188983 0,-0.265941 0.154097,-0.447231 0.342437,-0.402869 1.37057,0.322826 9.192276,-3.025724 12.859113,-5.505117 2.882892,-1.949315 7.834298,-6.929741 7.489762,-7.533657 -0.160351,-0.281072 -0.131418,-0.366725 0.0643,-0.190343 0.554518,0.499737 1.647003,-0.852383 1.338431,-1.656515 -0.151707,-0.395335 -0.148562,-0.718795 0.007,-0.718795 0.482264,0 3.46754,4.935283 3.46754,5.732566 0,1.029724 -5.548186,6.47111 -8.903338,8.73196 -5.225323,3.521055 -12.699757,6.608468 -17.469426,7.215977 -1.189964,0.151562 -2.831325,0.378575 -3.647464,0.504468 -0.816139,0.125893 -1.48389,0.0534 -1.48389,-0.161091 z m -12.78428,-1.047577 c -4.454706,-1.156909 -11.250674,-4.449564 -15.149763,-7.340075 -3.294783,-2.442524 -8.279738,-7.574805 -9.645598,-9.930641 l -0.82483,-1.422681 5.390639,0.08229 c 2.964866,0.04525 4.424992,0.158831 3.244736,0.252375 l -2.145922,0.170077 3.737333,3.441419 c 5.310404,4.889945 11.323908,8.21436 16.872591,9.327598 1.320966,0.265027 2.972018,0.701331 3.669007,0.969572 1.042862,0.401349 1.432391,0.338254 2.199892,-0.356325 0.643592,-0.582443 0.416052,0.06991 -0.734172,2.104863 -1.512028,2.675051 -2.320166,3.659957 -2.961262,3.608994 -0.125559,-0.01 -1.769254,-0.418348 -3.652651,-0.907474 z M -107.41016,16.465332 c -1.04119,-0.269849 -1.84282,-1.88612 -2.89978,-5.846617 -1.27714,-4.7855521 -1.19721,-15.5646075 0.15237,-20.5461627 1.10907,-4.0937833 3.10919,-8.9033383 3.70259,-8.9033383 0.64004,0 2.90048,4.519235 2.54675,5.091609 -0.19865,0.321415 -0.12695,0.405062 0.18301,0.213497 0.30555,-0.188847 0.88599,0.422783 1.44956,1.52749 0.51698,1.013348 0.83833,1.842451 0.71411,1.842451 -0.12421,0 -0.54459,-0.616384 -0.93417,-1.369744 -0.38957,-0.753359 -0.95987,-1.353523 -1.26732,-1.333699 -0.4323,0.02787 -0.43046,0.08797 0.008,0.265125 0.43161,0.174352 0.44469,0.457751 0.0548,1.186324 -0.7855,1.4677277 -1.64001,5.6521369 -1.98061,9.6987508 -0.35452,4.2120686 0.57127,10.9182996 2.03274,14.7247502 0.85989,2.239604 0.86798,2.401943 0.12318,2.471476 -0.43844,0.04093 0.33288,0.212904 1.71404,0.382158 l 2.511195,0.307741 -3.044575,0.07442 c -1.67453,0.04095 -3.31821,0.152732 -3.65265,0.248444 -0.33444,0.09571 -0.97042,0.08011 -1.41329,-0.03466 z"
       id="path5152"
       inkscape:connector-curvature="0" />
  </g>
</svg>
