<?xml version="1.0" encoding="UTF-8" standalone="no"?>
<svg
   xmlns:dc="http://purl.org/dc/elements/1.1/"
   xmlns:cc="http://creativecommons.org/ns#"
   xmlns:rdf="http://www.w3.org/1999/02/22-rdf-syntax-ns#"
   xmlns:svg="http://www.w3.org/2000/svg"
   xmlns="http://www.w3.org/2000/svg"
   xmlns:sodipodi="http://sodipodi.sourceforge.net/DTD/sodipodi-0.dtd"
   xmlns:inkscape="http://www.inkscape.org/namespaces/inkscape"
   aria-hidden="true"
   focusable="false"
   data-prefix="fab"
   data-icon="git-square"
   class="svg-inline--fa fa-git-square fa-w-14"
   role="img"
   viewBox="0 0 64 64"
   version="1.1"
   id="svg4"
   sodipodi:docname="git-square.svg"
   width="64"
   height="64"
   inkscape:version="1.0.2-2 (e86c870879, 2021-01-15)">
  <metadata
     id="metadata10">
    <rdf:RDF>
      <cc:Work
         rdf:about="">
        <dc:format>image/svg+xml</dc:format>
        <dc:type
           rdf:resource="http://purl.org/dc/dcmitype/StillImage" />
        <dc:title></dc:title>
      </cc:Work>
    </rdf:RDF>
  </metadata>
  <defs
     id="defs8" />
  <sodipodi:namedview
     pagecolor="#ffffff"
     bordercolor="#666666"
     borderopacity="1"
     objecttolerance="10"
     gridtolerance="10"
     guidetolerance="10"
     inkscape:pageopacity="0"
     inkscape:pageshadow="2"
     inkscape:window-width="1920"
     inkscape:window-height="1017"
     id="namedview6"
     showgrid="false"
     inkscape:pagecheckerboard="true"
     inkscape:zoom="5.6568543"
     inkscape:cx="43.905965"
     inkscape:cy="21.71312"
     inkscape:window-x="-8"
     inkscape:window-y="-8"
     inkscape:window-maximized="1"
     inkscape:current-layer="svg4" />
  <path
     fill="currentColor"
     d="m 15.51297,43.167483 c 6.618742,0.451062 8.033248,0.287535 8.033248,1.627092 0,2.725444 -8.932645,2.73362 -8.932645,0.207132 0.0013,-0.693625 0.448335,-1.280958 0.899397,-1.834224 z m 3.808809,-15.894795 c -4.400231,0 -4.599188,6.060028 -0.102211,6.060028 4.43021,0 4.321194,-6.060028 0.102211,-6.060028 z M 62.855309,8.5216281 V 56.489458 a 6.5410678,6.5410678 0 0 1 -6.541068,6.541069 H 8.3464128 A 6.5410678,6.5410678 0 0 1 1.8053452,56.489458 V 8.5216281 A 6.5410678,6.5410678 0 0 1 8.3464128,1.9805603 H 56.314241 a 6.5410678,6.5410678 0 0 1 6.541068,6.5410678 z M 31.921511,17.966657 c 0,1.974585 1.14196,3.11791 3.115183,3.11791 2.008654,0 3.151976,-1.143325 3.151976,-3.11791 0,-1.974584 -1.140597,-3.040233 -3.149251,-3.040233 -1.973221,0 -3.117908,1.068374 -3.117908,3.040233 z m -2.973462,6.226279 H 22.19576 c -3.406808,-0.892582 -11.114364,-0.660922 -11.114364,6.370728 0,2.561918 1.28096,4.360711 2.977547,5.193335 -2.13811,1.958232 -3.150612,2.880796 -3.150612,4.18901 0,0.936189 0.380199,1.801517 1.523523,2.28392 -1.212824,1.144687 -1.907812,1.973223 -1.907812,3.532177 0.0027,2.734985 2.391577,4.322556 8.658738,4.322556 6.02596,0 9.521343,-2.249854 9.521343,-6.23173 0,-4.997103 -3.846966,-4.813134 -12.914521,-5.366399 l 1.141962,-1.830138 c 2.316628,0.645931 10.110038,0.848976 10.110038,-5.782032 0,-1.593022 -0.658196,-2.700915 -1.28096,-3.498108 l 3.186045,-0.242565 z m 11.493202,14.968142 -1.771539,-0.242564 c -0.520561,-0.0695 -0.554629,-0.136271 -0.554629,-0.693624 V 23.85498 h -7.167919 l -0.3802,2.803122 c 2.146288,0.756308 2.316628,0.662282 2.316628,1.385886 v 10.18499 c 0,0.76585 -0.04225,0.624127 -2.316628,0.936189 v 2.733622 H 40.4358 Z m 13.692634,1.384527 -0.93619,-3.04841 c -5.577623,2.094503 -5.157904,-1.691139 -5.157904,-2.279834 V 26.94291 h 5.157904 v -3.462678 h -4.881272 c -0.391102,0 -0.272543,0.343406 -0.272543,-5.264195 h -3.295063 c -0.3802,3.774738 -1.591659,5.298263 -4.633257,5.644394 v 3.082479 c 2.789492,0 2.700916,-0.115831 2.700916,0.346132 v 9.071643 c 0,3.913738 1.557592,5.574897 5.678464,5.574897 1.969134,0 4.149489,-0.658195 5.638945,-1.389977 z"
     id="path2"
     style="stroke-width:0.136272" />
</svg>
