<?xml version="1.0" encoding="UTF-8" standalone="no"?>
<svg
   xmlns:dc="http://purl.org/dc/elements/1.1/"
   xmlns:cc="http://creativecommons.org/ns#"
   xmlns:rdf="http://www.w3.org/1999/02/22-rdf-syntax-ns#"
   xmlns:svg="http://www.w3.org/2000/svg"
   xmlns="http://www.w3.org/2000/svg"
   xmlns:sodipodi="http://sodipodi.sourceforge.net/DTD/sodipodi-0.dtd"
   xmlns:inkscape="http://www.inkscape.org/namespaces/inkscape"
   aria-hidden="true"
   focusable="false"
   data-prefix="fab"
   data-icon="python"
   class="svg-inline--fa fa-python fa-w-14"
   role="img"
   viewBox="0 0 64 64"
   version="1.1"
   id="svg4"
   sodipodi:docname="python.svg"
   width="64"
   height="64"
   inkscape:version="1.0.2-2 (e86c870879, 2021-01-15)">
  <metadata
     id="metadata10">
    <rdf:RDF>
      <cc:Work
         rdf:about="">
        <dc:format>image/svg+xml</dc:format>
        <dc:type
           rdf:resource="http://purl.org/dc/dcmitype/StillImage" />
        <dc:title></dc:title>
      </cc:Work>
    </rdf:RDF>
  </metadata>
  <defs
     id="defs8" />
  <sodipodi:namedview
     pagecolor="#ffffff"
     bordercolor="#666666"
     borderopacity="1"
     objecttolerance="10"
     gridtolerance="10"
     guidetolerance="10"
     inkscape:pageopacity="0"
     inkscape:pageshadow="2"
     inkscape:window-width="1920"
     inkscape:window-height="1017"
     id="namedview6"
     showgrid="false"
     inkscape:pagecheckerboard="true"
     inkscape:zoom="4.695631"
     inkscape:cx="28.337469"
     inkscape:cy="51.911689"
     inkscape:window-x="-8"
     inkscape:window-y="-8"
     inkscape:window-maximized="1"
     inkscape:current-layer="svg4" />
  <path
     fill="currentColor"
     d="M 61.840669,24.570179 C 60.783586,20.328124 58.779251,17.129423 54.50974,17.129423 h -5.505065 v 6.507227 c 0,5.052029 -4.283241,9.307813 -9.170529,9.307813 H 25.172282 c -4.008674,0 -7.330932,3.432084 -7.330932,7.454489 v 13.975443 c 0,3.981219 3.459541,6.315038 7.330932,7.45449 4.640178,1.359105 9.101888,1.606216 14.661864,0 3.692925,-1.070811 7.330931,-3.22616 7.330931,-7.45449 v -5.58743 H 32.516944 V 46.919909 H 54.50974 c 4.269511,0 5.848269,-2.979049 7.330929,-7.440755 1.537571,-4.598995 1.468929,-9.019518 0,-14.908975 z M 40.753945,52.507343 c 1.523845,0 2.759396,1.249277 2.759396,2.786851 0,1.551303 -1.235551,2.800584 -2.759396,2.800584 -1.510117,0 -2.759396,-1.263011 -2.759396,-2.800584 0.01374,-1.551299 1.249279,-2.786851 2.759396,-2.786851 z M 24.499592,31.104865 h 14.661867 c 4.077313,0 7.330932,-3.363438 7.330932,-7.454485 V 9.6612078 c 0,-3.9812175 -3.349714,-6.9602664 -7.330932,-7.6329549 C 34.246713,1.218281 28.906389,1.2594661 24.499592,2.041982 18.294385,3.1402489 17.168663,5.4328812 17.168663,9.6749366 v 5.5874304 h 14.675593 v 1.867056 H 11.663599 c -4.2695126,0 -8.0036199,2.567196 -9.1705284,7.440756 -1.3453771,5.587433 -1.4002901,9.07443 0,14.908975 1.0433535,4.338154 3.5281822,7.440755 7.7976944,7.440755 h 5.0383 v -6.699426 c 0,-4.846106 4.187142,-9.115618 9.170527,-9.115618 z M 23.579795,11.528262 c -1.523846,0 -2.759395,-1.24928 -2.759395,-2.7868526 0.01372,-1.5513023 1.235549,-2.8005807 2.759395,-2.8005807 1.510117,0 2.759396,1.2630067 2.759396,2.8005807 0,1.5375726 -1.23555,2.7868526 -2.759396,2.7868526 z"
     id="path2"
     style="stroke-width:0.137283" />
</svg>
