<?xml version="1.0" encoding="UTF-8" standalone="no"?>
<svg
   xmlns:dc="http://purl.org/dc/elements/1.1/"
   xmlns:cc="http://creativecommons.org/ns#"
   xmlns:rdf="http://www.w3.org/1999/02/22-rdf-syntax-ns#"
   xmlns:svg="http://www.w3.org/2000/svg"
   xmlns="http://www.w3.org/2000/svg"
   xmlns:xlink="http://www.w3.org/1999/xlink"
   xmlns:sodipodi="http://sodipodi.sourceforge.net/DTD/sodipodi-0.dtd"
   xmlns:inkscape="http://www.inkscape.org/namespaces/inkscape"
   viewBox="0 0 64 64"
   version="1.1"
   id="svg3939"
   sodipodi:docname="rumba.svg"
   inkscape:version="1.0.2-2 (e86c870879, 2021-01-15)"
   width="64"
   height="64">
  <metadata
     id="metadata3943">
    <rdf:RDF>
      <cc:Work
         rdf:about="">
        <dc:format>image/svg+xml</dc:format>
        <dc:type
           rdf:resource="http://purl.org/dc/dcmitype/StillImage" />
        <dc:title>file_type_maya</dc:title>
      </cc:Work>
    </rdf:RDF>
  </metadata>
  <sodipodi:namedview
     pagecolor="#ffffff"
     bordercolor="#666666"
     borderopacity="1"
     objecttolerance="10"
     gridtolerance="10"
     guidetolerance="10"
     inkscape:pageopacity="0"
     inkscape:pageshadow="2"
     inkscape:window-width="1920"
     inkscape:window-height="1017"
     id="namedview3941"
     showgrid="false"
     inkscape:pagecheckerboard="true"
     inkscape:zoom="4.7508738"
     inkscape:cx="15.85442"
     inkscape:cy="22.171962"
     inkscape:window-x="-8"
     inkscape:window-y="-8"
     inkscape:window-maximized="1"
     inkscape:current-layer="svg3939"
     inkscape:document-rotation="0" />
  <defs
     id="defs3921">
    <linearGradient
       id="a"
       x1="-611.34802"
       y1="-67.487999"
       x2="-600.27197"
       y2="-65.334999"
       gradientTransform="matrix(1.437,0,0,-1.437,894.417,-82.292)"
       gradientUnits="userSpaceOnUse">
      <stop
         offset="0"
         stop-color="#0f6067"
         id="stop3872" />
      <stop
         offset="0.5"
         stop-color="#05abac"
         id="stop3874" />
      <stop
         offset="1"
         stop-color="#58bec4"
         id="stop3876" />
    </linearGradient>
    <linearGradient
       id="b"
       x1="-603.59399"
       y1="-77.698997"
       x2="-602.01099"
       y2="-59.604"
       gradientTransform="matrix(1.437,0,0,-1.437,894.417,-82.292)"
       gradientUnits="userSpaceOnUse">
      <stop
         offset="0"
         stop-color="#117c83"
         id="stop3879" />
      <stop
         offset="0.5"
         stop-color="#21b5b5"
         id="stop3881" />
      <stop
         offset="1"
         stop-color="#7ed4d4"
         id="stop3883" />
    </linearGradient>
    <linearGradient
       id="c"
       x1="-612.75702"
       y1="-59.905998"
       x2="-616.93402"
       y2="-72.760002"
       gradientTransform="matrix(1.437,0,0,-1.437,894.417,-82.292)"
       gradientUnits="userSpaceOnUse">
      <stop
         offset="0"
         stop-color="#9accd3"
         id="stop3886" />
      <stop
         offset="0.5"
         stop-color="#72aeb3"
         id="stop3888" />
      <stop
         offset="1"
         stop-color="#317d7f"
         id="stop3890" />
    </linearGradient>
    <linearGradient
       id="d"
       x1="-621.85101"
       y1="-74.579002"
       x2="-614.84003"
       y2="-72.301003"
       gradientTransform="matrix(1.437,0,0,-1.437,894.417,-82.292)"
       gradientUnits="userSpaceOnUse">
      <stop
         offset="0"
         stop-color="#21626e"
         id="stop3893" />
      <stop
         offset="0.5"
         stop-color="#157c84"
         id="stop3895" />
      <stop
         offset="1"
         stop-color="#03a3a5"
         id="stop3897" />
    </linearGradient>
    <linearGradient
       id="e"
       x1="-616.36902"
       y1="-64.469002"
       x2="-625.34003"
       y2="-72.834999"
       gradientTransform="matrix(1.437,0,0,-1.437,894.417,-82.292)"
       gradientUnits="userSpaceOnUse"
       xlink:href="#c">
      <stop
         offset="0"
         stop-color="#0b7c81"
         id="stop3900" />
      <stop
         offset="0.5"
         stop-color="#068d90"
         id="stop3902" />
      <stop
         offset="1"
         stop-color="#16b1b1"
         id="stop3904" />
    </linearGradient>
    <linearGradient
       id="f"
       x1="-608.07202"
       y1="-74.678001"
       x2="-603.48798"
       y2="-70.966003"
       gradientTransform="matrix(1.437,0,0,-1.437,894.417,-82.292)"
       gradientUnits="userSpaceOnUse">
      <stop
         offset="0"
         stop-color="#0a8a8f"
         id="stop3907" />
      <stop
         offset="0.5"
         stop-color="#0f7c82"
         id="stop3909" />
      <stop
         offset="1"
         stop-color="#1a5964"
         id="stop3911" />
    </linearGradient>
    <linearGradient
       id="g"
       x1="-601.13397"
       y1="-70.112999"
       x2="-606.008"
       y2="-67.067001"
       gradientTransform="matrix(1.437,0,0,-1.437,894.417,-82.292)"
       gradientUnits="userSpaceOnUse">
      <stop
         offset="0"
         stop-color="#256a77"
         id="stop3914" />
      <stop
         offset="0.5"
         stop-color="#0d9499"
         id="stop3916" />
      <stop
         offset="1"
         stop-color="#06a0a2"
         id="stop3918" />
    </linearGradient>
  </defs>
  <title
     id="title3923">file_type_maya</title>
  <g
     id="g5048"
     transform="matrix(2.4577329,0,0,2.4577329,-9.5286372,-16.040853)">
    <path
       inkscape:connector-curvature="0"
       id="path5018"
       d="m 11.164905,15.900281 c -0.04341,-0.01596 -0.114453,-0.05785 -0.157866,-0.09309 -0.04341,-0.03524 -0.197332,-0.09451 -0.342042,-0.131731 -0.14471,-0.03722 -0.360597,-0.122848 -0.479748,-0.190292 -0.2678713,-0.151624 -0.7568666,-0.678 -0.7568666,-0.814723 0,-0.05555 -0.032796,-0.101003 -0.072881,-0.101003 -0.1864141,0 -0.4371564,-0.67527 -0.3576559,-0.963197 0.064717,-0.234386 -0.01259,-0.624195 -0.1481137,-0.746843 -0.1089771,-0.09862 -0.2344828,-0.05917 -0.1889814,0.0594 0.017496,0.04559 -0.1149716,0.230373 -0.3362008,0.468969 -0.4810176,0.518778 -0.5166642,0.672758 -0.2281943,0.985711 0.2393794,0.259696 0.5836313,0.756392 0.7472315,1.078127 l 0.1141028,0.224393 -0.1364327,0.05187 c -0.075038,0.02853 -0.3523734,0.05187 -0.616301,0.05187 -0.3762002,0 -0.5280033,-0.0233 -0.7026797,-0.107861 C 7.266153,15.557581 6.8554193,15.102517 6.7080304,14.791918 6.6599771,14.690653 6.4887229,14.465099 6.3274654,14.290687 L 6.0342699,13.973573 6.0003754,14.44253 c -0.018642,0.257925 -0.036402,0.652475 -0.039466,0.876776 l -0.00557,0.407819 H 5.3017517 4.6481663 L 4.6195133,15.398239 C 4.6037541,15.217351 4.5802158,13.86905 4.567206,12.402014 L 4.5435518,9.7346765 4.8153137,9.7011571 c 0.1494691,-0.018436 0.8400785,-0.025806 1.5346876,-0.016379 1.4507001,0.019688 1.4572052,0.02135 1.9804537,0.5057849 0.212911,0.197118 0.3085989,0.325255 0.3085989,0.413247 0,0.07015 0.03552,0.141168 0.078933,0.157827 0.043413,0.01666 0.078933,0.08442 0.078933,0.150585 0,0.06616 0.03552,0.133925 0.078933,0.150584 0.064749,0.02485 0.078933,0.157471 0.078933,0.738033 0,0.389258 0.014373,0.745199 0.031941,0.79098 0.07382,0.192372 0.1596284,0.05082 0.2766273,-0.456322 0.145113,-0.62901 0.4943989,-1.593919 0.6327029,-1.747854 0.054603,-0.06077 0.1207319,-0.262172 0.1532869,-0.4668404 0.03149,-0.1979761 0.09464,-0.4170147 0.140336,-0.4867526 0.0989,-0.1509443 0.307293,-0.1679477 0.425375,-0.034708 0.241883,0.2729337 0.516441,0.641499 0.60604,0.813543 0.120375,0.23114 0.136018,0.51516 0.02837,0.51516 -0.09454,0 -0.138205,0.116289 -0.0994,0.264689 0.01994,0.07627 0.0018,0.133079 -0.05211,0.163255 -0.04548,0.02545 -0.09787,0.123098 -0.116412,0.216988 -0.05358,0.27128 -0.135598,0.450104 -0.221587,0.483101 -0.04377,0.0168 -0.06649,0.06464 -0.05049,0.106327 0.016,0.04168 -0.0075,0.149155 -0.05225,0.238823 -0.04823,0.09667 -0.0677,0.217354 -0.04783,0.296495 0.02682,0.106842 0.01131,0.139268 -0.07775,0.162557 -0.08419,0.02202 -0.10411,0.05755 -0.08189,0.146104 0.01947,0.07755 -0.0058,0.148867 -0.07502,0.211484 -0.154576,0.139889 -0.135846,0.429625 0.04606,0.712478 0.198921,0.309315 0.350349,0.442141 0.660436,0.579307 0.676194,0.299113 1.140753,-0.116792 1.634717,-1.463511 0.135363,-0.369047 0.303513,-0.774617 0.373668,-0.901266 0.07015,-0.126649 0.127554,-0.308991 0.127554,-0.405205 0,-0.109169 0.03326,-0.193548 0.08848,-0.224447 0.0582,-0.03257 0.121019,-0.206962 0.183584,-0.509654 0.112015,-0.541937 0.304776,-0.9917811 0.460755,-1.0752586 0.130617,-0.069904 0.222094,-0.030793 0.180641,0.077231 -0.0171,0.044555 0.04613,0.1471682 0.152969,0.2482696 0.175604,0.166167 0.45961,0.652269 0.45961,0.786664 0,0.03592 0.0814,0.149186 0.180882,0.251703 0.214978,0.221532 0.555825,0.774411 0.555825,0.901589 0,0.04946 0.07696,0.169327 0.171021,0.266378 0.09406,0.09705 0.282947,0.335627 0.419745,0.53017 0.258786,0.368023 0.444848,0.479479 0.59391,0.355769 0.04304,-0.03572 0.07825,-0.108692 0.07825,-0.162166 0,-0.05347 0.07232,-0.150694 0.160711,-0.216045 0.08839,-0.06535 0.20305,-0.214058 0.254797,-0.330462 0.05175,-0.116404 0.224816,-0.365562 0.384596,-0.553685 0.159781,-0.188124 0.354992,-0.44543 0.433803,-0.571793 0.07881,-0.126363 0.187131,-0.241214 0.240711,-0.255226 0.05358,-0.01401 0.122165,-0.09646 0.15241,-0.183225 0.07298,-0.209338 0.468479,-0.754931 0.730816,-1.0081548 l 0.210246,-0.2029426 0.03694,0.4435054 c 0.04914,0.589917 0.01149,5.546134 -0.04254,5.600147 -0.05632,0.05631 -0.726923,0.09213 -0.948047,0.05065 -0.361455,-0.06781 -0.374652,-0.09874 -0.405798,-0.951135 -0.02132,-0.583575 -0.04617,-0.781464 -0.102499,-0.816275 -0.117246,-0.07246 -0.261989,0.03811 -0.365588,0.279293 -0.05196,0.120968 -0.25227,0.409381 -0.445128,0.640917 -0.192858,0.231536 -0.37468,0.450575 -0.404049,0.486753 -0.02937,0.03618 -0.112311,0.06578 -0.184315,0.06578 -0.15785,0 -0.599396,-0.445148 -0.600749,-0.605649 -4.74e-4,-0.05816 -0.04679,-0.134407 -0.102891,-0.169442 -0.0561,-0.03503 -0.198623,-0.22425 -0.316717,-0.420477 -0.118094,-0.196228 -0.296038,-0.470226 -0.395431,-0.608884 -0.09939,-0.138657 -0.168486,-0.283973 -0.153539,-0.322924 0.01529,-0.03985 -0.04387,-0.121409 -0.135307,-0.186516 -0.08937,-0.06363 -0.155989,-0.151976 -0.148052,-0.196315 0.0079,-0.04434 -0.02562,-0.106443 -0.07458,-0.138007 -0.13327,-0.08593 -0.286027,0.08053 -0.384377,0.418842 -0.04564,0.156997 -0.128655,0.312389 -0.186027,0.348218 -0.0706,0.04409 -0.103974,0.123528 -0.104762,0.249378 -0.0027,0.425545 -0.526223,1.217056 -1.013273,1.531852 -0.174589,0.112842 -0.359528,0.205168 -0.410975,0.205168 -0.05145,0 -0.108299,0.0465 -0.126338,0.10334 -0.0256,0.08066 -0.06486,0.09693 -0.178924,0.07411 -0.09448,-0.0189 -0.218698,0.0097 -0.351477,0.08084 -0.197035,0.105604 -0.434189,0.134276 -0.601574,0.07273 z M 6.8651611,12.562219 C 7.1853293,12.399153 7.4119724,12.214717 7.5331772,12.018603 7.6582805,11.816182 7.6669769,11.664338 7.5644326,11.472871 7.5232897,11.39605 7.4783949,11.296244 7.4646663,11.251079 7.4289611,11.133614 7.1113749,11.05302 6.5210224,11.01161 L 6.0079589,10.97562 v 0.747933 c 0,0.414938 0.024253,0.79325 0.054473,0.849718 0.077587,0.144973 0.508019,0.139047 0.8027288,-0.01105 z"
       style="opacity:1;fill:#000000;stroke-width:0.0526219" />
    <path
       inkscape:connector-curvature="0"
       id="path5020"
       d="m 20.133843,15.705058 c -0.09902,-0.0724 -0.102144,-0.165411 -0.102146,-3.038915 l -2e-6,-2.9642252 h 1.131371 c 1.252921,0 1.295006,0.00928 1.649303,0.3635742 0.236062,0.236062 0.395465,0.578015 0.45961,0.98596 0.0768,0.488439 0.07768,0.490092 0.464942,0.875201 0.431883,0.429481 0.560566,0.728665 0.670893,1.559804 0.04195,0.316031 0.103343,0.62387 0.136426,0.684084 0.05458,0.09933 0.06396,0.08787 0.101214,-0.123741 0.02297,-0.130476 0.109204,-0.318016 0.195737,-0.425694 0.08507,-0.105859 0.182635,-0.29631 0.216809,-0.423223 0.07199,-0.267334 0.351043,-0.838965 0.447596,-0.916872 0.03629,-0.02928 0.08245,-0.147961 0.102577,-0.26373 0.05336,-0.306981 0.389232,-1.061379 0.533355,-1.197978 0.06822,-0.06466 0.124973,-0.176769 0.126109,-0.249124 0.0028,-0.175456 0.160407,-0.512773 0.337959,-0.7231014 0.11894,-0.1408963 0.161552,-0.1611728 0.244935,-0.1165478 0.07366,0.039421 0.100944,0.1108655 0.100944,0.2643115 0,0.1413427 0.02673,0.2205437 0.08152,0.2415687 0.150934,0.05792 0.602567,1.079137 0.602567,1.362504 0,0.06473 0.03456,0.130948 0.07679,0.147155 0.102458,0.03932 0.313883,0.46462 0.423695,0.852301 0.04884,0.172416 0.124935,0.341946 0.169107,0.376733 0.04417,0.03479 0.06638,0.09954 0.04936,0.143907 -0.01854,0.04831 0.0089,0.101996 0.06847,0.133868 0.109731,0.05873 0.317633,0.561187 0.317633,0.767661 0,0.07218 0.03552,0.144863 0.07893,0.161522 0.04341,0.01666 0.07893,0.07404 0.07893,0.127511 0,0.05347 0.05584,0.15306 0.124084,0.221306 0.131117,0.131117 0.339063,0.627336 0.388836,0.927873 0.04177,0.252196 -0.07337,0.321068 -0.536133,0.320703 -0.646028,-5.27e-4 -0.993653,-0.177049 -1.066574,-0.541651 -0.01888,-0.09439 -0.07757,-0.168431 -0.157654,-0.198878 -0.197847,-0.07522 -1.648117,-0.05956 -1.804629,0.01949 -0.07236,0.03654 -0.207948,0.183058 -0.301318,0.325586 -0.227337,0.347031 -0.325229,0.391674 -0.863689,0.393882 -0.359703,0.0015 -0.478801,-0.01772 -0.570476,-0.09196 -0.114892,-0.09303 -0.115118,-0.09639 -0.02688,-0.399925 0.134658,-0.463207 0.0422,-0.497216 -0.31118,-0.114464 -0.196713,0.213061 -0.310114,0.297726 -0.368677,0.275253 -0.05183,-0.01989 -0.108404,0.0057 -0.146106,0.06607 -0.03384,0.05419 -0.09313,0.0864 -0.131753,0.07158 -0.03862,-0.01482 -0.103457,6.31e-4 -0.144075,0.03434 -0.189882,0.157589 -2.64903,0.232079 -2.84842,0.08628 z m 2.565919,-1.405484 c 0.113281,-0.0068 0.149481,-0.04168 0.177927,-0.171188 0.01964,-0.08943 0.07351,-0.190226 0.119698,-0.224003 0.123728,-0.09047 0.107592,-0.435944 -0.02934,-0.628253 -0.191558,-0.269018 -0.592465,-0.449403 -1.071826,-0.482259 l -0.417419,-0.02861 v 0.714931 c 0,0.887996 0.0085,0.899038 0.657773,0.85593 0.231537,-0.01537 0.484972,-0.03182 0.563191,-0.03655 z m 4.202056,-0.893353 c 0.07406,-0.138382 0.01799,-0.468056 -0.0796,-0.468056 -0.09793,0 -0.344336,0.300996 -0.344336,0.420627 0,0.180921 0.332585,0.218129 0.42394,0.04743 z M 21.77842,11.220343 c 0.03926,-0.102303 -0.116265,-0.235668 -0.225804,-0.193633 -0.0406,0.01558 -0.07382,0.08499 -0.07382,0.154251 0,0.09966 0.02779,0.125925 0.133206,0.125925 0.07507,0 0.1477,-0.03777 0.166416,-0.08654 z"
       style="opacity:1;fill:#000000;stroke-width:0.0526219" />
    <g
       id="g5067"
       transform="matrix(1.5100843,0,0,1.5100843,-7.9134073,-9.1770518)">
      <path
         style="opacity:1;fill:#000000;stroke-width:0.0526219"
         d="m 19.252596,26.304127 c -0.13658,-0.14471 -0.283555,-0.263109 -0.32661,-0.263109 -0.0939,0 -0.103726,-0.163996 -0.01514,-0.252585 0.03731,-0.03731 0.216724,-0.06315 0.438516,-0.06315 0.206453,0 0.39095,-0.01558 0.409994,-0.03462 0.0596,-0.05961 -0.07681,-0.175863 -0.206353,-0.175863 -0.171106,0 -0.27579,-0.22409 -0.338567,-0.72474 -0.08493,-0.67734 0.01644,-1.205099 0.323497,-1.684255 0.09755,-0.152224 0.102712,-0.191572 0.04379,-0.333824 -0.05723,-0.138162 -0.05371,-0.183414 0.02457,-0.315927 0.07403,-0.125329 0.08439,-0.219833 0.05457,-0.498204 -0.03441,-0.321301 -0.02956,-0.345427 0.07493,-0.372752 0.125281,-0.03276 0.139045,-0.07381 0.05345,-0.159407 -0.03205,-0.03205 -0.07443,-0.137281 -0.09418,-0.233849 -0.02378,-0.116251 -0.07077,-0.181968 -0.139061,-0.194485 -0.271641,-0.04979 -0.376503,-0.398053 -0.208395,-0.692125 0.04136,-0.07235 0.07604,-0.187861 0.07707,-0.25668 0.0017,-0.117001 -0.01201,-0.122907 -0.211758,-0.09097 -0.154144,0.02465 -0.255071,0.0097 -0.362488,-0.05378 -0.205312,-0.121281 -0.341689,-0.063 -0.294406,0.125811 0.08855,0.353613 0.08471,0.489251 -0.02425,0.855105 -0.06323,0.212317 -0.134705,0.596459 -0.15883,0.853649 -0.0447,0.476504 -0.108291,0.634387 -0.23581,0.585453 -0.141089,-0.05414 -0.182055,-0.310542 -0.09374,-0.586708 l 0.0826,-0.258297 -0.217988,-0.473224 C 17.788115,20.745325 17.689932,20.499027 17.689824,20.458269 17.689461,20.32156 17.4921,20.058471 17.301575,19.94072 c -0.211556,-0.130748 -0.316551,-0.116555 -0.61043,0.08252 -0.26708,0.18092 -0.369294,0.165125 -0.369294,-0.05707 0,-0.201192 0.147028,-0.345026 0.352687,-0.345026 0.1822,0 0.538877,-0.159163 0.596043,-0.265978 0.0281,-0.0525 0.05109,-0.144373 0.05109,-0.20416 0,-0.142054 -0.195723,-0.336116 -0.299017,-0.296478 -0.04422,0.01697 -0.220387,-0.03198 -0.391491,-0.108764 -0.306453,-0.137528 -0.314117,-0.138251 -0.513247,-0.04846 -0.260534,0.117484 -0.448495,0.09312 -0.470406,-0.06097 -0.01899,-0.133508 0.02675,-0.148797 0.594246,-0.19864 0.204243,-0.01794 0.40457,-0.06608 0.451429,-0.108489 0.04633,-0.04193 0.160895,-0.07624 0.254581,-0.07624 0.239774,0 0.342675,-0.06902 0.497961,-0.333994 0.131564,-0.224497 0.391042,-0.402713 0.58634,-0.402713 0.196178,0 0.455077,0.177098 0.56831,0.38875 0.101569,0.189849 0.115775,0.297112 0.115775,0.874176 v 0.657773 h 0.28942 c 0.279322,0 0.288676,-0.0046 0.26809,-0.131554 -0.01173,-0.07236 -0.02357,-0.356514 -0.02631,-0.631463 -0.0043,-0.426797 0.01339,-0.537216 0.120602,-0.755004 0.122517,-0.248867 0.365647,-0.454702 0.537565,-0.455103 0.129626,-3.03e-4 0.426224,0.219541 0.556003,0.412121 0.288207,0.42767 0.271553,1.362099 -0.0368,2.064648 -0.09094,0.207189 -0.153926,0.42035 -0.139977,0.473691 0.01395,0.05334 -0.02044,0.189564 -0.07643,0.30272 -0.159381,0.322138 -0.24088,1.317708 -0.139735,1.70695 0.06842,0.263305 0.06895,0.322272 0.004,0.447286 -0.0673,0.129564 -0.06539,0.149272 0.01905,0.196619 0.389458,0.21837 0.518901,0.553706 0.518901,1.344264 0,0.450253 -0.01826,0.582791 -0.09682,0.702612 -0.05325,0.08122 -0.086,0.189074 -0.07276,0.239671 0.04016,0.153558 -0.137393,0.335251 -0.322465,0.329988 -0.161659,-0.0046 -0.162546,-0.0032 -0.07896,0.124374 0.184858,0.28213 -0.05032,0.758448 -0.374481,0.758448 -0.128759,0 -0.217636,-0.0567 -0.412452,-0.26311 z"
         id="path5022"
         inkscape:connector-curvature="0" />
      <path
         style="opacity:1;fill:#000000;stroke-width:0.0526219"
         d="m 12.60547,26.557578 c -0.210943,-0.150938 -0.388127,-0.409944 -0.388127,-0.567361 0,-0.06777 -0.06116,-0.252493 -0.135902,-0.410493 -0.105557,-0.22313 -0.148918,-0.431557 -0.194197,-0.933471 -0.06799,-0.753636 -0.03227,-0.938503 0.250078,-1.294486 0.110858,-0.139766 0.172312,-0.266659 0.155326,-0.320723 -0.01546,-0.0492 0.0086,-0.160506 0.05354,-0.247341 0.102885,-0.198959 0.103712,-0.191072 -0.0334,-0.318811 -0.111676,-0.104042 -0.112446,-0.112627 -0.02631,-0.293255 0.119015,-0.249578 0.112446,-0.325659 -0.04606,-0.533473 l -0.134794,-0.176725 0.108483,-0.137914 c 0.15245,-0.193809 0.137685,-0.319453 -0.104021,-0.885183 -0.576679,-1.349755 -0.557768,-2.44538 0.04927,-2.854258 0.276138,-0.185998 0.440491,-0.159903 0.65004,0.103207 0.275582,0.346022 0.513015,0.747754 0.513015,0.868012 0,0.05992 -0.05941,0.223601 -0.132016,0.363747 -0.201771,0.389444 -0.263621,0.843099 -0.186041,1.364557 0.03555,0.238936 0.05075,0.478168 0.03378,0.531628 -0.01697,0.05346 -0.113866,0.141906 -0.21533,0.196548 -0.20934,0.112736 -0.22836,0.18462 -0.08353,0.315689 0.09939,0.08994 0.0992,0.09432 -0.01174,0.282355 -0.08858,0.150135 -0.117053,0.299616 -0.133083,0.698706 -0.02338,0.582134 0.01015,0.67721 0.304367,0.862939 0.223269,0.140944 0.278145,0.262731 0.374306,0.830708 0.06502,0.38404 0.106618,0.449762 0.207633,0.328047 0.03576,-0.04309 0.106588,-0.07835 0.157384,-0.07835 0.127643,0 0.184431,-0.08509 0.280952,-0.420975 0.07431,-0.258584 0.206742,-0.497887 0.491809,-0.888672 0.06819,-0.09349 0.08905,-0.213678 0.08147,-0.469468 -0.0058,-0.195813 0.0157,-0.375002 0.04995,-0.41627 0.03307,-0.03985 0.0622,-0.216659 0.06473,-0.392904 0.0035,-0.24451 0.02642,-0.334248 0.09668,-0.378689 0.213584,-0.135084 0.384359,0.176918 0.227702,0.416007 -0.05399,0.0824 -0.08299,0.245741 -0.08299,0.467449 0,0.187434 -0.02368,0.355423 -0.05262,0.37331 -0.100337,0.06201 -0.05131,0.234716 0.212207,0.747547 0.163898,0.31896 0.277285,0.615654 0.297513,0.778489 0.03614,0.290919 0.08912,0.352234 0.266016,0.307837 0.06536,-0.0164 0.119199,-0.0095 0.119642,0.01535 4.42e-4,0.02484 0.02231,0.07916 0.0486,0.120704 0.03867,0.06111 0.08879,0.0385 0.262455,-0.118399 0.230394,-0.208147 0.457251,-0.255221 0.514241,-0.106708 0.04896,0.127579 -0.191739,0.311423 -0.464906,0.355095 -0.459536,0.07347 -0.839551,0.417195 -0.96542,0.873228 -0.01997,0.07236 -0.09438,0.180529 -0.16535,0.240386 -0.08448,0.07125 -0.117314,0.139389 -0.09508,0.197332 0.03584,0.09339 0.233189,0.124901 0.233189,0.03723 0,-0.08888 0.315331,-0.218695 0.490103,-0.201767 0.124673,0.01207 0.171779,0.04504 0.18369,0.128566 0.02495,0.174919 -0.218086,0.334847 -0.509869,0.335519 -0.203508,4.73e-4 -0.285487,0.03448 -0.505967,0.209928 -0.296963,0.236308 -0.438455,0.260437 -0.58384,0.09957 -0.08748,-0.09679 -0.100244,-0.195916 -0.100244,-0.778167 0,-0.748467 -0.06794,-0.952677 -0.316945,-0.952677 -0.07169,0 -0.1773,-0.04696 -0.234695,-0.104353 -0.104056,-0.104056 -0.104556,-0.103944 -0.175985,0.03947 -0.130981,0.262976 -0.206233,0.633593 -0.170219,0.838333 0.09816,0.558047 0.09379,0.668217 -0.03404,0.857832 -0.151648,0.224941 -0.280041,0.249712 -0.49544,0.09558 z"
         id="path5024"
         inkscape:connector-curvature="0" />
      <g
         id="g5056">
        <path
           inkscape:connector-curvature="0"
           id="path5026"
           d="m 14.90106,20.907991 c 0,-0.07367 0.06006,-0.194006 0.133465,-0.267412 0.114606,-0.114606 0.162939,-0.128486 0.342043,-0.09823 l 0.208577,0.03524 v -0.189576 c 0,-0.157151 0.02902,-0.207221 0.169655,-0.292748 0.150058,-0.09126 0.17492,-0.09377 0.215235,-0.02173 0.06789,0.121314 -0.0018,0.32537 -0.135558,0.396807 -0.06478,0.0346 -0.267192,0.177364 -0.44981,0.31725 -0.377448,0.289128 -0.483607,0.315556 -0.483607,0.120393 z"
           style="opacity:1;fill:#000000;stroke-width:0.0526219" />
        <path
           inkscape:connector-curvature="0"
           id="path5028"
           d="m 13.849178,18.700933 c -0.03572,-0.04304 -0.05121,-0.114084 -0.03441,-0.157866 0.04522,-0.117827 1.338033,-0.117827 1.383247,0 0.04199,0.109416 -0.07466,0.236129 -0.217373,0.236129 -0.06491,0 -0.178223,-0.04736 -0.251811,-0.105244 -0.07359,-0.05788 -0.173685,-0.105244 -0.222439,-0.105244 -0.04875,0 -0.148852,0.04736 -0.22244,0.105244 -0.158348,0.124556 -0.344224,0.136091 -0.434778,0.02698 z"
           style="opacity:1;fill:#000000;stroke-width:0.0526219" />
        <path
           inkscape:connector-curvature="0"
           id="path5030"
           d="m 17.409371,23.795817 c -0.08208,-0.08208 -0.0235,-0.290184 0.13135,-0.466544 0.09154,-0.104255 0.206313,-0.312278 0.255056,-0.462272 0.06717,-0.206708 0.116749,-0.27688 0.204818,-0.289913 0.127673,-0.01889 0.268267,0.0722 0.268267,0.17382 0,0.12346 -0.263001,0.355587 -0.37091,0.327368 -0.125567,-0.03284 -0.12684,-0.0149 -0.01266,0.178392 0.08999,0.152343 0.08994,0.15249 -0.115923,0.363317 -0.200319,0.205146 -0.287905,0.247925 -0.359998,0.175832 z"
           style="opacity:1;fill:#000000;stroke-width:0.0526219" />
        <path
           inkscape:connector-curvature="0"
           id="path5032"
           d="m 16.801044,24.192684 c -0.07369,-0.211399 -0.02466,-0.26815 0.238904,-0.276523 0.150837,-0.0048 0.203845,0.01609 0.218075,0.08592 0.01093,0.05365 -0.02136,0.106471 -0.07718,0.126241 -0.05279,0.0187 -0.146428,0.07929 -0.20809,0.134662 -0.111663,0.100266 -0.112351,0.09998 -0.171712,-0.0703 z"
           style="opacity:1;fill:#000000;stroke-width:0.0526219" />
        <path
           inkscape:connector-curvature="0"
           id="path5034"
           d="m 16.400784,26.111593 c -0.267037,-0.07429 -0.318808,-0.328906 -0.07893,-0.388199 0.145256,-0.0359 0.420976,0.03764 0.420976,0.112284 0,0.07457 0.17782,0.0557 0.36768,-0.03901 0.126058,-0.06289 0.210687,-0.07336 0.310149,-0.03838 0.169976,0.05978 0.204711,0.204681 0.06676,0.278509 -0.118246,0.06328 -0.927728,0.119002 -1.086633,0.07479 z"
           style="opacity:1;fill:#000000;stroke-width:0.0526219" />
        <path
           inkscape:connector-curvature="0"
           id="path5036"
           d="m 18.034655,26.096504 c -0.121103,-0.133817 -0.07298,-0.347417 0.08774,-0.389446 0.238951,-0.06249 0.468362,0.231941 0.291176,0.373698 -0.143249,0.114606 -0.284152,0.120462 -0.378917,0.01575 z"
           style="opacity:1;fill:#000000;stroke-width:0.0526219" />
      </g>
    </g>
  </g>
</svg>
