<?xml version="1.0" encoding="UTF-8" standalone="no"?>
<svg
   xmlns:dc="http://purl.org/dc/elements/1.1/"
   xmlns:cc="http://creativecommons.org/ns#"
   xmlns:rdf="http://www.w3.org/1999/02/22-rdf-syntax-ns#"
   xmlns:svg="http://www.w3.org/2000/svg"
   xmlns="http://www.w3.org/2000/svg"
   xmlns:sodipodi="http://sodipodi.sourceforge.net/DTD/sodipodi-0.dtd"
   xmlns:inkscape="http://www.inkscape.org/namespaces/inkscape"
   viewBox="0 0 64 64"
   version="1.1"
   id="svg4"
   sodipodi:docname="unreal.svg"
   width="64"
   height="64"
   inkscape:version="1.0.2-2 (e86c870879, 2021-01-15)">
  <metadata
     id="metadata10">
    <rdf:RDF>
      <cc:Work
         rdf:about="">
        <dc:format>image/svg+xml</dc:format>
        <dc:type
           rdf:resource="http://purl.org/dc/dcmitype/StillImage" />
        <dc:title></dc:title>
      </cc:Work>
    </rdf:RDF>
  </metadata>
  <defs
     id="defs8" />
  <sodipodi:namedview
     pagecolor="#ffffff"
     bordercolor="#666666"
     borderopacity="1"
     objecttolerance="10"
     gridtolerance="10"
     guidetolerance="10"
     inkscape:pageopacity="0"
     inkscape:pageshadow="2"
     inkscape:window-width="1920"
     inkscape:window-height="1017"
     id="namedview6"
     showgrid="false"
     inkscape:pagecheckerboard="true"
     inkscape:zoom="4"
     inkscape:cx="19.896341"
     inkscape:cy="27.536375"
     inkscape:window-x="-8"
     inkscape:window-y="-8"
     inkscape:window-maximized="1"
     inkscape:current-layer="svg4" />
  <path
     d="m 32.103572,1.1554054 c -17.095008,0 -30.9814196,13.8864106 -30.9814196,30.9814186 0,17.095008 13.8864116,30.981419 30.9814196,30.981419 17.095008,0 30.981419,-13.886411 30.981419,-30.981419 0,-17.095008 -13.886411,-30.9814186 -30.981419,-30.9814186 z m 0,2.6940363 c 15.638882,0 28.287383,12.6485013 28.287383,28.2873823 0,15.638881 -12.648501,28.287382 -28.287383,28.287382 -15.638881,0 -28.2873825,-12.648501 -28.2873825,-28.287382 0,-15.638881 12.6485015,-28.2873823 28.2873825,-28.2873823 z M 30.246034,12.60506 C 19.674635,15.119943 7.3938699,27.96915 8.588675,37.693274 14.340443,27.54888 18.233326,26.169533 19.290735,26.169533 c 1.064144,0 1.636627,0.57383 1.636627,1.799617 v 15.118932 c 0,1.877743 -1.815781,1.651444 -3.020015,1.46825 4.461324,6.65427 14.869734,7.112256 14.869734,7.112256 l 4.660683,-5.067482 4.495,3.841696 c 6.845547,-4.43169 11.364793,-11.938623 11.364793,-13.075506 -3.387751,3.735281 -6.29731,4.414178 -6.950614,4.414178 -0.651957,0 -1.714755,-0.07813 -1.714755,-0.977935 v -17.9342 c 0,-1.557153 4.283518,-6.66774 5.634578,-8.386536 -8.907832,2.33573 -12.338687,6.787625 -12.338687,6.787625 0,0 -1.198846,-0.899808 -3.840349,-0.899808 0.988711,0.841886 2.372099,2.366711 2.372099,4.166327 v 16.422846 c 0,0 -2.945929,2.125595 -4.660683,2.125595 -1.716101,0 -2.941888,-0.731431 -2.941888,-2.04208 V 21.429376 c 0,0 -2.451573,1.720142 -2.451573,-3.351381 0,-2.532394 3.840349,-5.472935 3.840349,-5.472935 z"
     id="path2"
     style="stroke-width:1.34702" />
</svg>
